<?xml version="1.0" encoding="UTF-8" standalone="yes"?>
<!DOCTYPE svg PUBLIC "-//W3C//DTD SVG 1.1//EN" "http://www.w3.org/Graphics/SVG/1.1/DTD/svg11.dtd">

<svg width="1320" height="420" viewBox="0 0 1320 420" xmlns="http://www.w3.org/2000/svg" xmlns:xlink="http://www.w3.org/1999/xlink" version="1.1" baseProfile="full">
    <g transform="scale(1.000000,-1.000000) translate(0,-420)">
        <path d="M 118.558594 11.029297 Q 106.244141 5.697266 93.485352 3.348633 Q 80.726562 1.000000 69.364258 1.000000 Q 58.001953 1.000000 48.924805 2.206055 Q 39.847656 3.412109 30.897461 6.395508 Q 21.947266 9.378906 15.472656 14.076172 Q 1.000000 24.359375 1.000000 43.148438 Q 1.000000 54.320312 6.205078 64.032227 Q 11.410156 73.744141 19.789062 80.091797 Q 37.562500 93.802734 58.636719 93.802734 Q 83.900391 93.802734 96.214844 78.949219 Q 102.308594 71.458984 102.308594 60.794922 Q 102.308594 50.130859 92.215820 42.323242 Q 82.123047 34.515625 70.951172 34.515625 Q 68.285156 34.515625 68.285156 37.245117 Q 68.285156 39.974609 70.824219 41.180664 Q 73.363281 42.386719 76.917969 43.465820 Q 80.472656 44.544922 84.027344 46.068359 Q 92.787109 50.003906 92.787109 58.827148 Q 92.787109 67.650391 84.725586 72.157227 Q 76.664062 76.664062 56.732422 76.664062 Q 36.800781 76.664062 25.882812 66.571289 Q 14.964844 56.478516 14.964844 42.513672 Q 14.964844 24.105469 31.341797 16.361328 Q 45.941406 9.378906 66.253906 9.378906 Q 101.166016 9.378906 122.748047 29.310547 Q 137.982422 43.275391 137.982422 64.476562 Q 137.982422 77.171875 128.968750 89.105469 Q 125.033203 94.437500 120.208984 99.642578 Q 115.384766 104.847656 110.560547 110.052734 Q 105.736328 115.257812 101.800781 120.462891 Q 92.787109 131.888672 92.787109 141.791016 Q 92.787109 151.693359 96.024414 158.866211 Q 99.261719 166.039062 104.657227 171.307617 Q 110.052734 176.576172 117.035156 180.384766 Q 131.126953 188.255859 146.869141 188.255859 Q 160.580078 188.255859 172.386719 181.654297 Q 185.335938 174.544922 185.335938 159.945312 Q 185.335938 154.232422 181.273438 149.916016 Q 177.210938 145.599609 172.132812 145.599609 Q 167.054688 145.599609 163.817383 148.519531 Q 160.580078 151.439453 160.580078 155.057617 Q 160.580078 158.675781 163.690430 162.801758 Q 166.800781 166.927734 166.800781 169.657227 Q 166.800781 172.386719 164.515625 174.671875 Q 162.230469 176.957031 158.675781 178.099609 Q 151.566406 180.257812 145.726562 180.257812 Q 132.269531 180.257812 122.621094 172.259766 Q 112.972656 164.261719 112.972656 150.042969 Q 112.972656 142.298828 122.621094 131.888672 Q 126.937500 127.318359 132.079102 122.176758 Q 137.220703 117.035156 142.425781 111.195312 Q 147.630859 105.355469 151.947266 99.134766 Q 161.595703 85.423828 161.595703 70.697266 Q 161.595703 55.970703 155.755859 44.037109 Q 149.916016 32.103516 140.458008 24.295898 Q 131.000000 16.488281 118.558594 11.029297 Z M 195.238281 30.199219 Q 196.000000 15.599609 214.916016 15.599609 Q 221.898438 15.599609 229.452148 19.598633 Q 237.005859 23.597656 241.703125 29.056641 L 247.162109 25.501953 Q 236.625000 7.855469 213.519531 3.919922 Q 208.441406 3.158203 203.744141 3.158203 Q 190.033203 3.158203 180.892578 12.235352 Q 171.751953 21.312500 171.751953 34.388672 Q 171.751953 47.464844 179.750000 58.573242 Q 187.748047 69.681641 199.745117 75.775391 Q 211.742188 81.869141 223.421875 81.869141 Q 235.101562 81.869141 243.670898 76.537109 Q 252.240234 71.205078 252.430664 62.191406 Q 252.621094 53.177734 247.162109 46.639648 Q 241.703125 40.101562 233.324219 36.673828 Q 216.693359 29.945312 200.697266 29.945312 Z M 194.476562 37.181641 Q 208.568359 37.689453 217.137695 41.688477 Q 225.707031 45.687500 229.071289 50.829102 Q 232.435547 55.970703 232.435547 61.620117 Q 232.435547 67.269531 229.515625 69.999023 Q 226.595703 72.728516 223.294922 72.728516 Q 215.169922 72.728516 208.377930 67.079102 Q 201.585938 61.429688 198.031250 53.368164 Q 194.476562 45.306641 194.476562 37.181641 Z M 331.205078 65.238281 Q 326.380859 65.238281 319.779297 59.081055 Q 313.177734 52.923828 306.957031 44.037109 Q 297.054688 29.818359 286.771484 11.283203 L 283.343750 5.189453 L 265.443359 5.189453 Q 265.443359 5.189453 269.378906 17.123047 Q 280.423828 50.130859 280.423828 56.288086 Q 280.423828 62.445312 278.392578 62.445312 Q 274.710938 62.445312 269.632812 53.685547 Q 268.490234 51.654297 267.728516 50.448242 Q 266.966797 49.242188 266.014648 47.528320 Q 265.062500 45.814453 264.808594 45.433594 L 256.302734 50.384766 Q 266.205078 66.507812 274.457031 74.188477 Q 282.708984 81.869141 291.341797 81.869141 Q 295.277344 81.869141 298.133789 78.568359 Q 300.990234 75.267578 300.990234 70.760742 Q 300.990234 66.253906 300.482422 62.762695 Q 299.974609 59.271484 299.339844 56.351562 Q 298.705078 53.431641 297.562500 49.369141 Q 296.419922 45.306641 295.721680 43.148438 Q 295.023438 40.990234 293.880859 37.308594 Q 292.738281 33.626953 292.484375 32.992188 Q 294.769531 37.562500 300.228516 46.449219 Q 305.687500 55.335938 307.337891 57.621094 Q 308.988281 59.906250 311.908203 63.714844 Q 314.828125 67.523438 317.049805 69.618164 Q 319.271484 71.712891 322.381836 74.442383 Q 325.492188 77.171875 328.285156 78.568359 Q 335.394531 81.869141 341.996094 81.869141 Q 348.597656 81.869141 352.596680 77.997070 Q 356.595703 74.125000 356.595703 68.983398 Q 356.595703 63.841797 353.358398 59.969727 Q 350.121094 56.097656 345.868164 56.097656 Q 341.615234 56.097656 339.203125 57.557617 Q 336.791016 59.017578 335.902344 60.667969 Q 333.236328 65.238281 331.205078 65.238281 Z M 381.097656 3.158203 Q 375.765625 3.158203 372.718750 6.458984 Q 369.671875 9.759766 369.671875 15.536133 Q 369.671875 21.312500 372.655273 31.278320 Q 375.638672 41.244141 378.622070 49.369141 Q 381.605469 57.494141 381.605469 60.223633 Q 381.605469 62.953125 379.828125 62.953125 Q 375.384766 62.953125 365.482422 45.433594 L 356.976562 50.384766 Q 375.638672 81.869141 391.253906 81.869141 Q 401.917969 81.869141 401.917969 68.412109 Q 401.917969 64.476562 399.378906 55.843750 L 390.238281 29.691406 Q 388.841797 26.009766 388.841797 23.026367 Q 388.841797 20.042969 391.126953 20.042969 Q 395.443359 20.042969 406.996094 36.039062 L 412.328125 31.087891 Q 405.472656 18.392578 396.014648 10.775391 Q 386.556641 3.158203 381.097656 3.158203 Z M 417.279297 119.320312 Q 417.279297 114.242188 413.851562 110.052734 Q 410.423828 105.863281 404.583984 105.863281 Q 398.744141 105.863281 395.824219 109.354492 Q 392.904297 112.845703 392.904297 118.177734 Q 392.904297 123.509766 396.522461 127.635742 Q 400.140625 131.761719 405.853516 131.761719 Q 411.566406 131.761719 414.422852 128.143555 Q 417.279297 124.525391 417.279297 119.320312 Z M 443.304688 30.199219 Q 444.066406 15.599609 462.982422 15.599609 Q 469.964844 15.599609 477.518555 19.598633 Q 485.072266 23.597656 489.769531 29.056641 L 495.228516 25.501953 Q 484.691406 7.855469 461.585938 3.919922 Q 456.507812 3.158203 451.810547 3.158203 Q 438.099609 3.158203 428.958984 12.235352 Q 419.818359 21.312500 419.818359 34.388672 Q 419.818359 47.464844 427.816406 58.573242 Q 435.814453 69.681641 447.811523 75.775391 Q 459.808594 81.869141 471.488281 81.869141 Q 483.167969 81.869141 491.737305 76.537109 Q 500.306641 71.205078 500.497070 62.191406 Q 500.687500 53.177734 495.228516 46.639648 Q 489.769531 40.101562 481.390625 36.673828 Q 464.759766 29.945312 448.763672 29.945312 Z M 442.542969 37.181641 Q 456.634766 37.689453 465.204102 41.688477 Q 473.773438 45.687500 477.137695 50.829102 Q 480.501953 55.970703 480.501953 61.620117 Q 480.501953 67.269531 477.582031 69.999023 Q 474.662109 72.728516 471.361328 72.728516 Q 463.236328 72.728516 456.444336 67.079102 Q 449.652344 61.429688 446.097656 53.368164 Q 442.542969 45.306641 442.542969 37.181641 Z M 521.380859 6.078125 Q 513.128906 8.998047 509.574219 12.997070 Q 506.019531 16.996094 506.019531 21.820312 Q 506.019531 26.644531 508.685547 29.818359 Q 511.351562 32.992188 515.731445 32.992188 Q 520.111328 32.992188 523.475586 30.389648 Q 526.839844 27.787109 526.839844 23.026367 Q 526.839844 18.265625 521.000000 15.091797 Q 525.824219 10.902344 535.726562 10.902344 Q 557.181641 10.902344 557.181641 23.089844 Q 557.181641 30.707031 543.597656 35.277344 Q 538.011719 37.181641 532.362305 39.339844 Q 526.712891 41.498047 522.523438 45.687500 Q 518.333984 49.876953 517.953125 55.843750 Q 517.953125 64.476562 523.666016 70.443359 Q 534.457031 81.869141 555.912109 81.869141 Q 566.449219 81.869141 574.574219 77.870117 Q 582.699219 73.871094 582.699219 67.523438 Q 582.699219 61.175781 579.461914 58.382812 Q 576.224609 55.589844 571.908203 55.589844 Q 567.591797 55.589844 564.608398 57.938477 Q 561.625000 60.287109 561.625000 64.476562 Q 561.625000 68.666016 566.576172 71.712891 Q 563.529297 73.871094 556.039062 73.871094 Q 548.548828 73.871094 542.582031 71.649414 Q 536.615234 69.427734 536.615234 65.619141 Q 536.615234 61.810547 540.995117 59.271484 Q 545.375000 56.732422 551.595703 54.574219 Q 557.816406 52.416016 564.037109 49.623047 Q 570.257812 46.830078 574.637695 41.625000 Q 579.017578 36.419922 579.017578 28.802734 Q 579.017578 21.185547 572.796875 14.964844 Q 560.990234 3.158203 540.550781 3.158203 Q 529.759766 3.158203 521.380859 6.078125 Z" transform="scale(1.000000,1.000000) translate(733.265728,197.999144)" opacity="1.000000"></path>
        <path d="M 59.515625 1.000000 Q 51.859375 1.000000 46.117188 1.683594 Q 40.375000 2.367188 35.316406 4.964844 Q 22.054688 11.390625 22.054688 30.667969 Q 22.054688 39.964844 24.994141 52.953125 Q 27.933594 65.941406 33.402344 80.980469 Q 45.433594 114.066406 63.207031 144.554688 Q 49.261719 143.734375 41.126953 140.384766 Q 32.992188 137.035156 30.394531 130.062500 Q 31.625000 130.062500 32.855469 127.191406 Q 34.085938 124.320312 34.085938 121.312500 Q 34.085938 116.390625 29.574219 113.382812 Q 25.062500 110.375000 18.363281 110.375000 Q 10.843750 110.375000 6.058594 114.476562 Q 1.000000 118.714844 1.000000 126.644531 Q 1.000000 133.617188 5.238281 139.974609 Q 9.476562 146.332031 17.269531 150.980469 Q 25.199219 155.765625 35.658203 158.431641 Q 46.117188 161.097656 58.148438 161.097656 Q 64.027344 161.097656 72.777344 160.277344 Q 96.292969 197.328125 119.808594 218.382812 Q 147.152344 242.855469 170.121094 242.855469 Q 183.792969 242.855469 192.269531 238.890625 L 148.382812 32.855469 L 108.050781 32.855469 L 129.515625 134.437500 Q 119.398438 139.085938 110.580078 141.410156 Q 101.761719 143.734375 92.054688 144.554688 Q 76.195312 110.238281 66.078125 74.417969 Q 55.687500 38.460938 55.687500 16.585938 Q 55.687500 5.785156 59.515625 1.000000 Z M 148.382812 223.031250 Q 136.214844 216.468750 122.816406 198.285156 Q 109.691406 180.238281 97.933594 156.585938 Q 117.074219 152.894531 132.113281 146.878906 Z M 256.937500 157.679688 L 241.351562 157.679688 Q 233.832031 157.679688 230.414062 156.996094 Q 225.902344 156.175781 225.902344 153.304688 Q 225.902344 152.621094 226.449219 152.484375 Q 227.542969 152.210938 228.500000 150.570312 Q 228.910156 149.613281 228.910156 147.152344 Q 228.910156 139.769531 224.261719 135.804688 Q 219.886719 132.250000 213.871094 132.250000 Q 208.949219 132.250000 205.121094 135.394531 Q 201.019531 138.812500 201.019531 144.554688 Q 201.019531 148.929688 203.343750 153.919922 Q 205.667969 158.910156 209.769531 163.011719 Q 214.144531 167.523438 220.228516 170.189453 Q 226.312500 172.855469 233.421875 172.855469 L 305.472656 172.855469 L 236.839844 54.457031 Q 238.207031 54.320312 246.410156 53.500000 Q 252.152344 52.679688 258.031250 52.679688 Q 263.773438 52.679688 267.191406 53.910156 Q 270.609375 55.140625 271.292969 58.285156 Q 268.558594 58.558594 267.259766 60.130859 Q 265.960938 61.703125 265.960938 64.164062 Q 265.960938 66.214844 266.986328 68.333984 Q 268.011719 70.453125 269.925781 72.230469 Q 274.574219 76.195312 281.546875 76.195312 Q 287.835938 76.195312 290.912109 72.503906 Q 293.988281 68.812500 293.988281 62.796875 Q 293.988281 57.875000 291.664062 52.611328 Q 289.339844 47.347656 284.964844 42.972656 Q 280.316406 38.324219 273.958984 35.589844 Q 267.601562 32.855469 259.808594 32.855469 L 185.570312 32.855469 Z M 333.226562 31.214844 Q 319.828125 31.214844 312.035156 39.144531 Q 303.285156 47.894531 303.285156 64.710938 Q 303.285156 72.640625 305.472656 83.031250 L 324.476562 172.855469 L 364.808594 172.855469 L 344.710938 77.699219 Q 343.890625 73.460938 343.890625 69.769531 Q 343.890625 58.285156 352.230469 58.285156 Q 359.886719 58.285156 366.039062 65.257812 Q 370.960938 71.136719 374.652344 83.031250 L 393.656250 172.855469 L 433.988281 172.855469 L 413.890625 77.699219 Q 412.660156 73.597656 412.660156 68.675781 Q 412.660156 62.933594 415.394531 60.609375 Q 418.128906 58.285156 424.144531 58.285156 Q 431.937500 58.285156 438.089844 65.257812 Q 443.558594 71.410156 446.839844 83.031250 L 458.597656 83.031250 Q 451.078125 61.703125 440.414062 49.261719 Q 431.390625 39.007812 420.042969 34.496094 Q 411.703125 31.214844 402.406250 31.214844 Q 390.375000 31.214844 383.265625 37.914062 Q 376.156250 44.613281 374.652344 57.738281 Q 365.082031 42.425781 353.050781 35.863281 Q 344.437500 31.214844 333.226562 31.214844 Z M 465.843750 172.855469 L 506.175781 172.855469 L 502.621094 155.492188 Q 512.191406 163.968750 518.207031 167.523438 Q 527.503906 172.855469 536.390625 172.855469 Q 545.414062 172.855469 550.882812 166.429688 Q 553.343750 163.558594 554.574219 159.798828 Q 555.804688 156.039062 555.804688 151.800781 Q 555.804688 147.972656 554.574219 144.417969 Q 553.343750 140.863281 550.882812 137.992188 Q 548.148438 134.984375 544.251953 133.207031 Q 540.355469 131.429688 535.570312 131.429688 Q 531.878906 131.429688 529.691406 132.660156 Q 527.503906 133.890625 526.273438 136.214844 Q 525.179688 138.539062 524.769531 140.726562 Q 523.539062 146.605469 522.308594 148.519531 Q 521.351562 149.886719 519.300781 149.886719 Q 513.421875 149.886719 509.320312 147.425781 Q 505.218750 144.964844 498.929688 139.222656 L 476.507812 32.855469 L 436.175781 32.855469 Z" transform="scale(1.000000,1.000000) translate(3.036366,170.699339)" opacity="1.000000"></path>
        <path d="M 14.186454 17.000000 L 40.626456 17.000000 C 42.014558 17.000000 44.427970 18.491571 45.048748 19.733126 L 147.724106 225.083845 C 147.040416 223.716464 148.928454 220.661554 150.457232 220.661554 L 124.017230 220.661554 C 122.629128 220.661554 120.215716 219.169984 119.594938 217.928428 L 16.919580 12.577709 C 17.603270 13.945090 15.715232 17.000000 14.186454 17.000000 Z M 14.186454 1.000000 C 3.821119 1.000000 -2.026773 10.462090 2.608745 19.733126 L 105.284103 225.083845 C 108.615153 231.745945 116.568775 236.661554 124.017230 236.661554 L 150.457232 236.661554 C 160.822566 236.661554 166.670459 227.199464 162.034941 217.928428 L 59.359583 12.577709 C 56.028533 5.915609 48.074911 1.000000 40.626456 1.000000 L 14.186454 1.000000 Z" transform="scale(1.000000,1.000000) translate(564.230787,173.796297)" opacity="1.000000"></path>
        <path d="M 56.168000 37.352000 L 56.168000 31.464000 Q 56.040000 28.904000 56.104000 26.664000 Q 56.168000 24.424000 56.296000 22.632000 Q 56.424000 20.584000 56.552000 18.920000 Q 56.552000 15.976000 54.696000 13.544000 Q 52.840000 11.112000 50.664000 8.936000 Q 49.000000 7.272000 47.592000 6.248000 Q 46.184000 5.224000 43.240000 3.944000 Q 42.600000 3.560000 41.384000 3.688000 Q 40.168000 3.816000 40.168000 5.224000 Q 39.400000 7.528000 38.696000 9.192000 Q 37.992000 10.856000 36.968000 12.136000 Q 35.944000 13.416000 34.536000 14.568000 Q 33.128000 15.720000 30.952000 17.000000 L 31.080000 17.640000 Q 34.536000 17.256000 37.608000 16.936000 Q 40.680000 16.616000 44.008000 16.872000 Q 46.056000 17.000000 46.568000 17.576000 Q 47.080000 18.152000 47.080000 20.200000 L 47.080000 22.376000 L 47.080000 30.696000 Q 47.080000 31.976000 47.080000 33.896000 Q 47.080000 35.816000 47.016000 37.992000 Q 46.952000 40.168000 46.888000 42.280000 Q 46.824000 44.392000 46.824000 45.928000 L 37.608000 45.928000 L 31.976000 45.544000 L 29.032000 48.616000 Q 28.008000 41.448000 26.088000 35.560000 Q 24.168000 29.672000 21.032000 24.488000 Q 17.896000 19.304000 13.224000 14.504000 Q 8.552000 9.704000 2.024000 4.584000 L 1.000000 5.608000 Q 7.528000 12.520000 11.304000 19.240000 Q 15.080000 25.960000 17.064000 33.128000 Q 19.048000 40.296000 19.688000 48.168000 Q 20.328000 56.040000 20.584000 65.384000 L 20.584000 94.824000 Q 24.552000 93.544000 27.368000 92.200000 Q 30.184000 90.856000 33.256000 88.680000 L 33.256000 88.552000 L 56.552000 88.552000 L 61.672000 94.824000 Q 64.360000 93.672000 66.600000 92.008000 Q 68.840000 90.344000 70.632000 88.296000 Q 71.144000 87.656000 70.632000 87.144000 L 68.072000 84.072000 L 68.072000 70.248000 L 57.832000 70.504000 L 57.832000 70.632000 L 30.440000 70.632000 L 30.440000 64.616000 Q 30.184000 60.392000 29.928000 56.616000 Q 29.672000 52.840000 29.160000 49.384000 L 37.736000 49.128000 L 60.136000 49.128000 L 66.792000 54.120000 Q 69.352000 52.328000 70.888000 50.792000 Q 72.424000 49.256000 74.216000 46.696000 L 73.320000 45.928000 L 54.376000 45.928000 Q 55.528000 45.288000 56.616000 44.584000 Q 57.704000 43.880000 58.728000 43.112000 Q 59.240000 42.600000 58.728000 42.088000 L 56.168000 39.528000 Z M 107.752000 88.936000 Q 107.624000 86.504000 107.624000 83.432000 Q 107.624000 80.872000 107.560000 77.416000 Q 107.496000 73.960000 107.496000 69.992000 L 109.416000 69.992000 L 116.840000 76.008000 Q 119.016000 74.216000 121.064000 71.976000 Q 123.112000 69.736000 124.520000 67.432000 L 123.752000 66.792000 L 107.496000 66.792000 Q 107.496000 61.928000 107.496000 56.872000 Q 107.496000 51.816000 107.496000 47.208000 Q 107.496000 42.600000 107.560000 38.760000 Q 107.624000 34.920000 107.752000 32.488000 Q 107.880000 28.776000 108.008000 26.600000 Q 108.136000 24.424000 108.008000 23.144000 Q 107.880000 21.864000 107.560000 21.032000 Q 107.240000 20.200000 106.600000 19.048000 Q 105.448000 16.744000 104.296000 15.144000 Q 103.144000 13.544000 101.864000 12.200000 Q 100.584000 10.856000 99.048000 9.640000 Q 97.512000 8.424000 95.592000 7.016000 Q 92.776000 4.968000 90.600000 4.392000 Q 88.424000 3.816000 87.400000 6.376000 Q 85.608000 11.368000 83.240000 14.504000 Q 80.872000 17.640000 75.368000 20.072000 L 76.136000 20.840000 Q 79.976000 20.456000 84.072000 20.392000 Q 88.168000 20.328000 91.496000 20.840000 Q 94.056000 21.096000 95.272000 22.120000 Q 96.488000 23.144000 96.872000 24.680000 Q 97.000000 25.704000 97.256000 27.752000 Q 97.512000 29.800000 97.704000 32.104000 Q 97.896000 34.408000 98.024000 36.584000 Q 98.152000 38.760000 98.152000 40.040000 L 98.152000 66.792000 L 82.024000 66.792000 L 74.088000 66.280000 L 70.248000 70.120000 L 82.152000 69.992000 L 98.152000 69.992000 L 98.152000 98.152000 Q 102.120000 97.128000 105.000000 95.720000 Q 107.880000 94.312000 110.440000 92.520000 Q 110.824000 92.008000 110.440000 91.624000 Z M 111.080000 115.304000 Q 114.408000 113.256000 116.904000 110.888000 Q 119.400000 108.520000 121.832000 104.936000 L 120.680000 103.784000 L 88.808000 103.784000 L 88.808000 99.688000 Q 87.784000 96.744000 85.992000 95.208000 Q 84.200000 93.672000 82.408000 93.288000 Q 80.616000 92.904000 79.336000 93.736000 Q 78.056000 94.568000 77.928000 96.488000 L 77.928000 103.784000 L 51.688000 103.784000 L 51.688000 100.456000 Q 51.048000 97.384000 49.384000 96.232000 Q 47.720000 95.080000 45.416000 94.440000 Q 44.008000 93.800000 42.408000 94.056000 Q 40.808000 94.312000 40.808000 95.720000 L 40.808000 103.784000 L 21.864000 103.784000 L 12.136000 103.144000 L 7.016000 107.624000 L 23.016000 107.368000 L 40.808000 107.368000 L 40.808000 119.656000 Q 49.128000 117.480000 55.272000 113.128000 Q 55.784000 112.744000 55.400000 112.104000 L 51.688000 108.776000 L 51.688000 107.368000 L 77.928000 107.368000 L 77.928000 119.016000 Q 82.024000 118.120000 85.480000 116.712000 Q 88.936000 115.304000 92.136000 113.128000 Q 92.776000 112.744000 92.008000 112.104000 L 88.808000 109.288000 L 88.808000 107.368000 L 102.376000 107.368000 Z M 30.440000 85.352000 L 30.440000 73.832000 L 57.832000 73.832000 L 57.832000 85.352000 Z M 15.592000 9.832000 Q 22.632000 16.744000 27.112000 25.064000 Q 31.592000 33.384000 34.920000 41.576000 L 43.752000 35.816000 Q 44.520000 35.048000 43.240000 34.792000 L 41.320000 34.152000 Q 39.400000 31.336000 36.648000 27.752000 Q 33.896000 24.168000 30.632000 20.584000 Q 27.368000 17.000000 23.784000 13.864000 Q 20.200000 10.728000 16.616000 8.680000 Z M 75.112000 59.496000 Q 74.984000 60.520000 75.880000 60.392000 Q 92.904000 49.256000 91.752000 45.032000 Q 90.600000 40.040000 84.712000 37.864000 Q 82.920000 37.480000 82.024000 38.376000 Q 81.128000 39.272000 80.872000 40.808000 Q 79.720000 47.208000 78.312000 51.880000 Q 76.904000 56.552000 75.112000 59.496000 Z M 59.112000 36.584000 Q 58.472000 37.608000 59.624000 37.608000 Q 76.776000 31.592000 76.776000 27.880000 Q 76.776000 23.144000 72.168000 20.072000 Q 70.632000 19.304000 69.672000 19.880000 Q 68.712000 20.456000 68.200000 21.864000 Q 63.336000 32.360000 59.112000 36.584000 Z M 61.160000 67.560000 Q 65.512000 65.000000 68.456000 60.264000 L 67.560000 59.496000 L 40.808000 59.496000 L 35.560000 59.112000 L 31.976000 62.952000 L 40.936000 62.696000 L 54.504000 62.696000 Z M 389.736000 18.792000 Q 392.680000 17.000000 395.176000 14.248000 Q 397.672000 11.496000 399.720000 8.552000 L 399.208000 7.656000 L 295.784000 7.656000 L 285.288000 7.016000 L 281.832000 11.624000 L 297.448000 11.240000 L 303.208000 11.240000 L 303.208000 45.928000 Q 306.152000 45.288000 309.416000 43.816000 Q 312.680000 42.344000 315.496000 40.424000 L 364.520000 40.424000 L 371.560000 47.720000 Q 374.120000 46.568000 376.616000 44.392000 Q 379.112000 42.216000 380.904000 40.040000 Q 381.032000 39.784000 380.904000 39.272000 L 376.552000 35.048000 L 376.552000 11.240000 L 381.288000 11.240000 Z M 383.080000 114.024000 Q 386.792000 111.720000 389.352000 109.224000 Q 391.912000 106.728000 394.472000 103.016000 L 393.320000 101.864000 L 361.064000 101.864000 L 361.064000 100.968000 Q 361.320000 98.792000 361.000000 96.872000 Q 360.680000 94.952000 359.784000 93.672000 Q 358.760000 92.392000 357.672000 91.496000 Q 356.584000 90.600000 354.792000 89.960000 Q 353.384000 89.320000 351.784000 90.152000 Q 350.184000 90.984000 350.184000 92.392000 L 350.184000 101.864000 L 328.936000 101.864000 L 328.936000 101.480000 Q 329.320000 97.000000 327.656000 94.312000 Q 326.632000 92.904000 325.160000 92.072000 Q 323.688000 91.240000 321.896000 90.600000 Q 320.488000 89.960000 319.208000 90.792000 Q 317.928000 91.624000 317.928000 93.032000 L 317.928000 101.864000 L 300.776000 101.864000 L 289.640000 101.096000 L 285.032000 105.576000 L 301.288000 105.192000 L 317.928000 105.192000 L 317.928000 117.736000 Q 321.640000 116.584000 325.352000 115.048000 Q 329.064000 113.512000 331.752000 111.720000 L 331.752000 111.080000 L 328.936000 107.752000 L 328.936000 105.192000 L 350.184000 105.192000 L 350.184000 117.480000 Q 353.896000 116.328000 357.544000 114.792000 Q 361.192000 113.256000 363.880000 111.464000 L 363.880000 110.824000 L 361.064000 107.496000 L 361.064000 105.192000 L 374.120000 105.192000 Z M 361.960000 84.840000 Q 362.216000 84.584000 362.088000 84.072000 L 358.888000 81.896000 Q 357.992000 80.104000 357.160000 78.504000 Q 356.328000 76.904000 355.304000 75.368000 L 372.328000 75.368000 L 381.032000 83.560000 Q 383.848000 81.512000 386.472000 79.080000 Q 389.096000 76.648000 391.144000 73.320000 L 390.248000 72.168000 L 353.384000 72.168000 Q 348.776000 64.872000 343.144000 58.664000 Q 337.512000 52.456000 330.472000 46.952000 L 329.192000 47.976000 Q 333.032000 52.712000 335.912000 57.512000 Q 338.792000 62.312000 341.096000 67.496000 Q 343.400000 72.680000 345.256000 78.440000 Q 347.112000 84.200000 348.904000 90.984000 Z M 331.240000 84.200000 Q 331.624000 83.944000 331.368000 83.432000 L 328.424000 80.232000 L 328.424000 58.088000 L 328.424000 57.320000 Q 328.424000 57.064000 328.488000 56.616000 Q 328.552000 56.168000 328.552000 55.912000 Q 329.064000 50.920000 328.104000 48.488000 Q 327.144000 46.056000 323.688000 44.264000 Q 321.896000 43.368000 320.360000 43.880000 Q 318.824000 44.392000 318.824000 46.312000 L 318.824000 89.320000 Q 322.536000 88.680000 325.544000 87.336000 Q 328.552000 85.992000 331.240000 84.200000 Z M 311.272000 82.792000 Q 311.656000 82.536000 311.400000 82.024000 L 308.456000 78.696000 L 308.456000 61.416000 L 308.456000 60.648000 Q 308.456000 60.392000 308.456000 59.944000 Q 308.456000 59.496000 308.584000 59.240000 Q 309.096000 54.248000 308.072000 51.752000 Q 307.048000 49.256000 303.592000 47.464000 Q 301.800000 46.568000 300.328000 47.080000 Q 298.856000 47.592000 298.856000 49.640000 L 298.856000 87.912000 Q 302.568000 87.272000 305.512000 85.928000 Q 308.456000 84.584000 311.272000 82.792000 Z M 334.312000 11.240000 L 345.320000 11.240000 L 345.320000 37.352000 L 334.312000 37.352000 Z M 313.960000 11.240000 L 324.712000 11.240000 L 324.712000 37.352000 L 313.960000 37.352000 Z M 354.920000 37.352000 L 354.920000 11.240000 L 365.672000 11.240000 L 365.672000 37.352000 Z M 355.560000 67.944000 Q 354.920000 68.968000 356.200000 68.968000 Q 360.680000 67.944000 364.584000 66.536000 Q 368.488000 65.128000 371.432000 63.528000 Q 374.376000 61.928000 376.040000 60.392000 Q 377.704000 58.856000 377.704000 57.704000 Q 377.704000 51.816000 372.456000 48.488000 Q 369.000000 46.824000 367.848000 50.664000 Q 366.824000 53.608000 365.608000 55.912000 Q 364.392000 58.216000 362.856000 60.200000 Q 361.320000 62.184000 359.528000 63.976000 Q 357.736000 65.768000 355.560000 67.944000 Z M 588.648000 79.208000 L 616.552000 100.840000 L 573.544000 97.384000 L 572.776000 99.304000 L 650.216000 114.792000 L 658.920000 106.344000 Q 659.560000 105.704000 659.176000 105.064000 Q 658.792000 104.424000 657.768000 104.168000 L 619.368000 101.096000 L 626.408000 92.904000 Q 627.304000 91.624000 625.512000 91.624000 L 622.568000 91.496000 L 597.992000 79.720000 L 627.688000 81.512000 L 641.256000 90.344000 L 650.472000 80.616000 Q 650.984000 79.976000 650.728000 79.400000 Q 650.472000 78.824000 649.448000 79.080000 L 646.632000 79.464000 L 595.688000 55.912000 L 644.968000 58.600000 Q 642.792000 61.160000 640.936000 63.016000 Q 639.080000 64.872000 637.672000 66.024000 Q 637.032000 67.176000 638.056000 67.304000 Q 643.816000 66.152000 648.744000 64.360000 Q 653.672000 62.568000 657.256000 60.648000 Q 660.840000 58.728000 662.888000 56.872000 Q 664.936000 55.016000 665.064000 53.736000 Q 665.832000 47.336000 660.456000 42.984000 Q 656.488000 41.192000 655.080000 44.520000 Q 653.416000 47.208000 651.496000 50.024000 Q 649.576000 52.840000 647.528000 55.400000 L 626.536000 51.816000 L 626.536000 21.352000 L 626.536000 20.456000 Q 626.536000 20.072000 626.536000 19.624000 Q 626.536000 19.176000 626.664000 18.920000 Q 627.304000 13.160000 626.088000 10.280000 Q 624.872000 7.400000 620.776000 5.352000 Q 618.600000 4.328000 616.808000 4.904000 Q 615.016000 5.480000 615.016000 7.784000 L 615.016000 49.768000 L 579.816000 43.880000 Q 578.408000 43.624000 577.768000 43.816000 Q 577.128000 44.008000 576.232000 45.032000 L 568.168000 54.504000 L 588.136000 55.528000 L 620.776000 76.904000 L 583.656000 69.352000 Q 582.632000 69.096000 582.056000 69.224000 Q 581.480000 69.352000 580.840000 70.248000 L 575.336000 78.440000 Z M 606.056000 36.328000 Q 607.080000 35.432000 605.672000 35.048000 L 601.704000 33.640000 Q 597.736000 29.160000 593.448000 25.384000 Q 589.160000 21.608000 583.912000 18.216000 Q 578.664000 14.824000 572.200000 11.624000 Q 565.736000 8.424000 557.672000 4.968000 L 556.520000 5.992000 Q 563.560000 10.600000 569.192000 14.824000 Q 574.824000 19.048000 579.496000 23.528000 Q 584.168000 28.008000 588.264000 33.000000 Q 592.360000 37.992000 596.456000 44.392000 Z M 665.576000 15.848000 Q 664.168000 13.032000 661.672000 12.456000 Q 659.176000 11.880000 657.000000 14.440000 Q 653.928000 18.920000 651.240000 22.632000 Q 648.552000 26.344000 645.736000 29.672000 Q 642.920000 33.000000 639.528000 36.200000 Q 636.136000 39.400000 631.656000 42.856000 Q 631.272000 43.112000 631.656000 43.752000 Q 632.040000 44.392000 632.680000 44.136000 Q 638.184000 41.960000 642.152000 40.360000 Q 646.120000 38.760000 649.512000 37.096000 Q 652.904000 35.432000 656.040000 33.448000 Q 659.176000 31.464000 663.016000 28.776000 Q 665.064000 27.368000 665.960000 25.640000 Q 666.856000 23.912000 667.048000 22.120000 Q 667.240000 20.328000 666.792000 18.728000 Q 666.344000 17.128000 665.576000 15.848000 Z M 898.152000 85.992000 Q 898.792000 85.096000 898.152000 84.584000 L 894.568000 80.232000 Q 891.880000 70.248000 888.808000 62.248000 Q 885.736000 54.248000 881.832000 47.592000 Q 877.928000 40.936000 873.000000 35.304000 Q 868.072000 29.672000 861.672000 24.424000 Q 855.272000 19.176000 847.272000 13.992000 Q 839.272000 8.808000 829.288000 3.176000 L 827.880000 4.712000 Q 841.448000 14.312000 850.664000 22.568000 Q 859.880000 30.824000 866.152000 39.656000 Q 872.424000 48.488000 876.328000 58.984000 Q 880.232000 69.480000 883.176000 83.560000 L 863.976000 83.560000 Q 862.312000 80.360000 860.584000 77.288000 Q 858.856000 74.216000 856.808000 71.272000 Q 860.648000 69.480000 863.400000 68.008000 Q 866.152000 66.536000 868.072000 65.192000 Q 869.992000 63.848000 871.144000 62.440000 Q 872.296000 61.032000 872.936000 59.496000 Q 873.704000 57.832000 873.320000 56.104000 Q 872.936000 54.376000 871.976000 52.904000 Q 871.016000 51.432000 869.544000 50.344000 Q 868.072000 49.256000 866.536000 48.872000 Q 862.952000 47.976000 862.056000 51.304000 Q 860.776000 56.552000 859.112000 60.776000 Q 857.448000 65.000000 855.016000 68.584000 Q 850.664000 62.312000 845.224000 56.040000 Q 839.784000 49.768000 832.744000 43.112000 L 831.592000 44.008000 Q 837.608000 52.072000 842.152000 59.688000 Q 846.696000 67.304000 850.024000 74.856000 Q 853.352000 82.408000 855.720000 89.960000 Q 858.088000 97.512000 859.880000 105.576000 L 848.488000 105.576000 L 838.248000 104.936000 L 832.872000 109.800000 L 849.512000 109.160000 L 883.560000 109.160000 L 893.160000 117.480000 Q 896.488000 115.432000 899.112000 112.552000 Q 901.736000 109.672000 903.912000 106.344000 L 902.888000 105.576000 L 864.488000 105.576000 L 873.192000 101.480000 Q 873.960000 101.096000 873.896000 100.520000 Q 873.832000 99.944000 873.192000 99.560000 L 870.504000 98.024000 Q 869.352000 95.080000 868.200000 92.392000 Q 867.048000 89.704000 865.768000 87.144000 L 882.664000 87.144000 L 886.120000 93.416000 Q 893.032000 90.984000 898.152000 85.992000 Z M 944.104000 107.624000 Q 943.976000 91.496000 943.848000 77.416000 Q 943.848000 71.400000 943.784000 65.256000 Q 943.720000 59.112000 943.784000 53.608000 Q 943.848000 48.104000 943.912000 43.688000 Q 943.976000 39.272000 944.104000 36.584000 Q 944.232000 32.360000 944.360000 29.800000 Q 944.488000 27.240000 944.360000 25.576000 Q 944.232000 23.912000 943.912000 22.888000 Q 943.592000 21.864000 942.824000 20.584000 Q 941.416000 18.024000 940.328000 16.296000 Q 939.240000 14.568000 938.024000 13.160000 Q 936.808000 11.752000 935.272000 10.536000 Q 933.736000 9.320000 931.560000 7.656000 Q 930.024000 6.504000 928.424000 5.672000 Q 926.824000 4.840000 925.480000 4.648000 Q 924.136000 4.456000 923.304000 4.968000 Q 922.472000 5.480000 922.344000 6.888000 Q 922.088000 9.576000 921.256000 11.560000 Q 920.424000 13.544000 918.760000 15.080000 Q 917.096000 16.616000 914.664000 17.896000 Q 912.232000 19.176000 908.904000 20.328000 L 908.904000 21.608000 Q 913.256000 21.224000 917.544000 21.160000 Q 921.832000 21.096000 925.544000 21.608000 Q 928.616000 21.992000 929.960000 23.080000 Q 931.304000 24.168000 931.688000 25.960000 Q 931.944000 27.240000 932.200000 29.800000 Q 932.456000 32.360000 932.712000 35.304000 Q 932.968000 38.248000 933.096000 40.936000 Q 933.224000 43.624000 933.224000 45.160000 L 932.840000 117.992000 Q 936.808000 116.840000 940.520000 115.304000 Q 944.232000 113.768000 947.176000 111.592000 Q 947.688000 111.336000 947.176000 110.568000 Z M 920.168000 93.032000 Q 920.680000 92.648000 920.424000 92.136000 L 917.992000 89.576000 L 917.992000 54.248000 Q 917.992000 50.536000 918.376000 46.696000 Q 918.632000 44.136000 918.376000 42.024000 Q 918.120000 39.912000 917.096000 38.120000 Q 916.200000 36.712000 915.240000 35.880000 Q 914.280000 35.048000 912.488000 34.280000 Q 911.080000 33.640000 909.608000 34.152000 Q 908.136000 34.664000 908.008000 36.456000 L 908.008000 98.920000 Q 911.720000 97.896000 914.472000 96.552000 Q 917.224000 95.208000 920.168000 93.032000 Z M 1160.296000 98.536000 Q 1160.680000 98.280000 1160.424000 97.768000 L 1157.608000 94.696000 L 1157.608000 93.032000 L 1174.376000 93.032000 L 1174.376000 103.528000 Q 1181.544000 101.864000 1186.664000 98.536000 Q 1187.048000 98.280000 1186.792000 97.768000 L 1183.848000 94.696000 L 1183.848000 93.032000 L 1188.072000 93.032000 L 1194.472000 98.408000 Q 1196.904000 96.616000 1198.696000 94.632000 Q 1200.488000 92.648000 1201.896000 90.600000 L 1201.000000 89.832000 L 1183.848000 89.832000 L 1183.848000 82.280000 L 1190.504000 82.280000 L 1197.416000 88.168000 Q 1199.976000 86.376000 1202.024000 84.136000 Q 1204.072000 81.896000 1205.480000 79.720000 L 1204.456000 78.952000 L 1183.848000 78.952000 L 1183.848000 71.144000 L 1206.888000 71.144000 L 1215.464000 78.568000 Q 1218.408000 76.392000 1220.328000 74.280000 Q 1222.248000 72.168000 1224.424000 68.968000 L 1223.272000 67.944000 L 1185.000000 67.944000 Q 1191.144000 64.616000 1196.584000 61.864000 Q 1202.024000 59.112000 1207.336000 56.872000 Q 1212.648000 54.632000 1218.152000 52.968000 Q 1223.656000 51.304000 1229.800000 50.152000 L 1229.800000 49.000000 Q 1225.320000 47.848000 1222.696000 45.672000 Q 1220.072000 43.496000 1218.536000 40.808000 Q 1217.640000 39.272000 1215.848000 40.296000 Q 1212.392000 42.472000 1208.168000 45.608000 Q 1203.944000 48.744000 1199.080000 52.712000 L 1196.264000 50.024000 L 1196.264000 29.288000 Q 1195.240000 27.368000 1193.448000 26.408000 Q 1191.656000 25.448000 1189.864000 25.064000 Q 1187.688000 24.552000 1185.256000 24.552000 L 1185.256000 52.328000 L 1146.984000 52.328000 L 1146.984000 35.560000 L 1146.984000 34.792000 Q 1146.984000 34.408000 1147.048000 34.024000 Q 1147.112000 33.640000 1147.112000 33.256000 Q 1147.752000 27.624000 1146.728000 24.872000 Q 1145.704000 22.120000 1141.992000 20.200000 Q 1140.072000 19.176000 1138.280000 19.752000 Q 1136.488000 20.328000 1136.488000 22.504000 L 1136.488000 53.352000 Q 1127.784000 48.104000 1119.016000 43.496000 Q 1110.248000 38.888000 1103.336000 36.328000 L 1102.440000 37.224000 Q 1108.456000 40.296000 1114.472000 44.328000 Q 1120.488000 48.360000 1125.992000 52.584000 Q 1131.496000 56.808000 1136.232000 60.840000 Q 1140.968000 64.872000 1144.552000 67.944000 L 1125.096000 67.944000 L 1116.136000 67.432000 L 1111.784000 71.784000 L 1125.864000 71.144000 L 1148.008000 71.144000 L 1148.008000 78.952000 L 1141.608000 78.952000 L 1134.056000 78.568000 L 1130.088000 82.664000 L 1142.248000 82.280000 L 1148.008000 82.280000 L 1148.008000 89.832000 L 1139.816000 89.832000 L 1132.904000 89.448000 L 1129.320000 93.288000 L 1140.456000 93.032000 L 1148.008000 93.032000 L 1148.008000 103.528000 Q 1151.720000 102.632000 1154.664000 101.480000 Q 1157.608000 100.328000 1160.296000 98.536000 Z M 1113.704000 2.152000 Q 1123.432000 4.456000 1131.496000 7.336000 Q 1139.560000 10.216000 1145.576000 14.440000 Q 1151.592000 18.664000 1155.304000 24.616000 Q 1159.016000 30.568000 1160.040000 39.144000 L 1160.168000 48.104000 Q 1163.880000 47.208000 1167.272000 46.056000 Q 1170.664000 44.904000 1173.864000 43.112000 Q 1174.248000 42.856000 1174.312000 42.408000 Q 1174.376000 41.960000 1173.736000 41.576000 L 1170.920000 38.632000 L 1170.024000 34.280000 Q 1169.512000 32.232000 1168.936000 30.376000 Q 1168.360000 28.520000 1167.592000 26.728000 Q 1171.688000 25.960000 1176.168000 24.872000 Q 1180.648000 23.784000 1184.936000 22.440000 Q 1189.224000 21.096000 1193.000000 19.688000 Q 1196.776000 18.280000 1199.464000 17.000000 Q 1202.664000 15.208000 1202.856000 11.560000 Q 1203.048000 7.912000 1200.232000 4.968000 Q 1198.824000 3.432000 1196.968000 3.560000 Q 1195.112000 3.688000 1193.960000 5.480000 Q 1190.376000 10.600000 1183.528000 15.080000 Q 1176.680000 19.560000 1166.312000 24.424000 Q 1163.112000 18.792000 1157.928000 14.824000 Q 1152.744000 10.856000 1146.088000 8.104000 Q 1139.432000 5.352000 1131.560000 3.624000 Q 1123.688000 1.896000 1115.112000 1.000000 Z M 1221.096000 107.880000 Q 1222.376000 106.472000 1222.696000 104.552000 Q 1223.016000 102.632000 1221.480000 102.120000 Q 1218.920000 101.352000 1216.680000 100.584000 Q 1214.440000 99.816000 1212.200000 98.792000 Q 1209.960000 97.768000 1207.592000 96.488000 Q 1205.224000 95.208000 1202.408000 93.288000 Q 1201.384000 93.800000 1201.000000 94.184000 L 1206.760000 103.912000 L 1131.240000 103.912000 Q 1131.112000 103.272000 1130.920000 102.696000 Q 1130.728000 102.120000 1130.472000 101.480000 Q 1127.912000 95.848000 1124.456000 92.264000 Q 1121.000000 88.680000 1116.008000 87.272000 Q 1115.112000 87.016000 1114.280000 87.592000 Q 1113.448000 88.168000 1114.088000 89.064000 Q 1117.928000 94.312000 1119.656000 100.392000 Q 1121.384000 106.472000 1120.872000 113.000000 Q 1120.488000 115.816000 1123.176000 115.432000 Q 1125.608000 115.176000 1127.400000 113.960000 Q 1129.192000 112.744000 1130.216000 110.824000 Q 1130.600000 109.928000 1130.920000 109.096000 Q 1131.240000 108.264000 1131.368000 107.240000 L 1160.296000 107.240000 L 1160.296000 119.912000 Q 1164.008000 119.016000 1166.888000 117.736000 Q 1169.768000 116.456000 1173.096000 114.664000 Q 1173.480000 114.408000 1173.224000 113.896000 L 1170.536000 111.336000 L 1170.536000 107.240000 L 1207.528000 107.240000 L 1212.648000 115.560000 Z M 1181.288000 67.944000 L 1157.864000 67.944000 Q 1155.048000 65.768000 1151.592000 63.400000 Q 1148.136000 61.032000 1144.424000 58.472000 Q 1146.856000 57.192000 1149.672000 55.528000 L 1183.976000 55.528000 L 1188.840000 61.288000 Z M 1157.608000 71.144000 L 1174.376000 71.144000 L 1174.376000 78.952000 L 1157.608000 78.952000 Z M 1157.608000 82.280000 L 1174.376000 82.280000 L 1174.376000 89.832000 L 1157.608000 89.832000 Z" transform="scale(1.000000,1.000000) translate(44.600656,5.445192)" opacity="1.000000"></path>
    </g>
</svg>