<?xml version="1.0" encoding="UTF-8" standalone="yes"?>
<!DOCTYPE svg PUBLIC "-//W3C//DTD SVG 1.1//EN" "http://www.w3.org/Graphics/SVG/1.1/DTD/svg11.dtd">

<svg width="256" height="256" viewBox="0 0 256 256" xmlns="http://www.w3.org/2000/svg" xmlns:xlink="http://www.w3.org/1999/xlink" version="1.1" baseProfile="full">
    <g transform="scale(1.000000,-1.000000) translate(0,-256)">
        <path d="M 38.593717 9.949400 C 38.501431 9.580680 38.268788 8.856552 38.128919 8.502661 C 37.989050 8.148770 37.663389 7.460303 37.478280 7.127169 C 37.293171 6.794036 36.879948 6.152764 36.652700 5.845970 C 36.425452 5.539175 35.931590 4.955842 35.666011 4.680526 C 35.400432 4.405211 34.834205 3.889590 34.534744 3.650365 Q 31.354841 1.000000 27.721949 1.000000 L 1.000000 1.000000 L 3.161796 9.958235 L 29.022611 9.958235 C 29.101975 9.955501 29.259744 9.973519 29.336367 9.994069 C 29.412991 10.014618 29.558254 10.077867 29.625255 10.119853 C 29.692255 10.161840 29.811968 10.264640 29.863328 10.324293 C 29.914689 10.383946 29.998099 10.517064 30.029207 10.589027 C 30.060315 10.660989 30.099932 10.812471 30.107994 10.890280 L 31.292048 15.789038 C 31.303065 15.822569 31.318990 15.891289 31.323834 15.926207 C 31.328678 15.961126 31.332055 16.031534 31.330575 16.066747 C 31.329094 16.101960 31.319818 16.171852 31.312058 16.206257 C 31.304299 16.240662 31.282660 16.307849 31.268865 16.340368 C 31.255070 16.372887 31.221745 16.435266 31.202347 16.464881 C 31.183849 16.490244 31.141921 16.537099 31.118697 16.558360 C 31.095474 16.579621 31.044970 16.617389 31.017938 16.633710 C 30.990906 16.650030 30.933818 16.677221 30.904044 16.687957 C 30.874270 16.698693 30.812851 16.714234 30.781509 16.718962 C 30.750168 16.723690 30.686842 16.726967 30.655170 16.725500 L 12.477256 16.725500 Q 8.844363 16.725500 6.938215 19.336110 Q 5.032068 21.946720 5.929078 25.679317 L 7.548180 32.397996 C 7.638449 32.769794 7.868138 33.500119 8.007063 33.857073 C 8.145988 34.214027 8.470801 34.908441 8.655989 35.244405 C 8.841178 35.580368 9.255522 36.226911 9.483785 36.536098 C 9.712048 36.845285 10.208787 37.432823 10.476193 37.709908 C 10.743599 37.986994 11.314179 38.505409 11.616123 38.745621 Q 14.791540 41.356230 18.415463 41.356230 L 46.164485 41.356230 L 44.002690 32.397996 L 17.119281 32.397996 C 17.082401 32.397747 17.008870 32.391993 16.972412 32.386504 C 16.935954 32.381015 16.864036 32.364869 16.828764 32.354254 C 16.793493 32.343640 16.724694 32.317440 16.691347 32.301923 C 16.658000 32.286405 16.593761 32.250700 16.563038 32.230605 C 16.532314 32.210510 16.473981 32.166046 16.446523 32.141794 C 16.416434 32.118252 16.359587 32.067311 16.332957 32.040025 C 16.306326 32.012739 16.256889 31.954783 16.234192 31.924242 C 16.211496 31.893701 16.170353 31.829766 16.151997 31.796515 C 16.133641 31.763265 16.101527 31.694495 16.087840 31.659130 C 16.074153 31.623764 16.051642 31.551389 16.042869 31.514541 L 14.849845 26.567193 C 14.840354 26.535514 14.827095 26.470759 14.823378 26.437934 C 14.819660 26.405109 14.818106 26.339068 14.820276 26.306108 C 14.822445 26.273148 14.832644 26.207858 14.840634 26.175781 C 14.848624 26.143703 14.870261 26.081176 14.883824 26.050969 C 14.897388 26.020762 14.929796 25.962927 14.948516 25.935523 C 14.967458 25.910382 15.010171 25.864009 15.033737 25.843000 C 15.057302 25.821990 15.108395 25.784733 15.135675 25.768665 C 15.162955 25.752597 15.220455 25.725893 15.250397 25.715386 C 15.280340 25.704878 15.342031 25.689757 15.373481 25.685216 C 15.404931 25.680675 15.468433 25.677720 15.500177 25.679321 L 33.673612 25.679321 Q 37.306505 25.679321 39.212653 23.068711 Q 41.118800 20.458101 40.226274 16.725504 Z" transform="scale(1.000000,1.000000) translate(1.236876,55.619800)" opacity="1.000000"></path>
        <path d="M 42.325278 21.200200 Q 40.185907 12.334728 36.795207 7.299035 Q 32.547862 1.000000 26.564802 1.000000 L 1.000000 1.000000 L 10.732565 41.356228 L 36.297367 41.356228 Q 42.576441 41.356228 43.670794 35.057193 Q 44.505007 30.251193 42.325278 21.200200 Z M 33.431418 21.200200 Q 34.776933 26.708542 34.812814 29.553267 C 34.844209 31.448278 34.319458 32.397993 33.229590 32.397993 L 17.276254 32.397993 L 11.862795 9.958234 L 27.816129 9.958234 Q 29.403837 9.958234 30.771778 12.895723 C 30.943614 13.297571 31.272039 14.107427 31.428571 14.515295 C 31.585104 14.923163 31.882700 15.744495 32.023712 16.157818 C 32.164724 16.571141 32.431079 17.402812 32.556376 17.821017 C 32.681673 18.239222 32.916418 19.080080 33.025826 19.502588 C 33.135233 19.925095 33.338043 20.773975 33.431410 21.200200 Z" transform="scale(1.000000,1.000000) translate(39.929437,55.610971)" opacity="1.000000"></path>
        <path d="M 38.738461 12.661606 Q 37.244938 6.477421 30.400747 3.473674 C 26.615363 1.826030 23.762869 1.000000 18.138613 1.000000 Q 9.433125 1.000000 5.208205 3.239559 Q -0.223194 6.128457 1.355544 12.661607 L 8.477809 42.195510 L 17.187781 42.195510 L 10.280800 13.549480 C 10.016182 12.462830 10.805551 11.619131 12.644423 11.031633 C 14.483295 10.444136 17.048745 10.148178 20.345259 10.148178 C 23.762869 10.148178 24.655395 10.435301 26.727489 11.009547 C 28.799583 11.583793 29.974667 12.436327 30.243771 13.553898 L 37.150752 42.199927 L 45.860713 42.199927 Z" transform="scale(1.000000,1.000000) translate(81.962128,54.771698)" opacity="1.000000"></path>
        <path d="M 39.311315 32.406817 L 1.000000 32.406817 L 3.161796 41.365051 L 41.473117 41.365051 Z M 16.038382 1.000000 L 7.328403 1.000000 L 13.818275 27.918875 L 22.528248 27.918875 Z" transform="scale(1.000000,1.000000) translate(127.195108,55.610980)" opacity="1.000000"></path>
        <path d="M 42.554013 25.679316 C 42.463989 25.307618 42.234673 24.577499 42.095879 24.220660 C 41.957084 23.863820 41.632424 23.169674 41.447261 22.833870 C 41.262099 22.498067 40.847714 21.851911 40.619390 21.542957 C 40.391065 21.234004 39.894130 20.647024 39.626597 20.370269 C 39.359063 20.093515 38.788181 19.575874 38.486070 19.336109 Q 35.310652 16.725499 31.686730 16.725499 L 13.499827 16.725499 L 9.709957 1.000000 L 1.000000 1.000000 L 6.951665 25.679317 L 32.929091 25.679317 C 32.968281 25.679123 33.046496 25.684149 33.085329 25.689356 C 33.124161 25.694563 33.200894 25.710312 33.238605 25.720817 C 33.276316 25.731321 33.350058 25.757485 33.385908 25.773080 C 33.421757 25.788676 33.491059 25.824740 33.524341 25.845120 C 33.557624 25.865500 33.621123 25.910755 33.651185 25.935519 C 33.680931 25.959542 33.737104 26.011319 33.763411 26.038962 C 33.789719 26.066604 33.838550 26.125159 33.860969 26.155947 C 33.883388 26.186734 33.924041 26.251066 33.942188 26.284472 C 33.960335 26.317879 33.992114 26.386886 34.005678 26.422339 C 34.019243 26.457793 34.041605 26.530295 34.050355 26.567189 L 35.243382 31.523376 C 35.386904 32.110874 35.153681 32.406831 34.548199 32.406831 L 8.570772 32.406831 L 10.732567 41.365066 L 37.620455 41.365066 Q 41.159161 41.365066 43.114644 38.754456 Q 45.070128 36.143847 44.168621 32.406831 Z" transform="scale(1.000000,1.000000) translate(157.119382,55.610965)" opacity="1.000000"></path>
        <path d="M 52.983451 1.000000 L 8.473762 1.000000 Q 2.486216 1.000000 1.297678 7.299035 Q 0.337876 12.334728 2.472761 21.200200 C 2.586028 21.697984 2.829735 22.689612 2.960140 23.183311 C 3.090545 23.677010 3.368382 24.659892 3.515775 25.148933 C 3.663167 25.637974 3.974814 26.610972 4.139022 27.094789 C 4.303231 27.578605 4.648325 28.540592 4.829160 29.018623 C 5.009995 29.496654 5.388137 30.446514 5.585388 30.918205 Q 7.720273 35.821381 10.559312 38.383401 C 10.865192 38.670383 11.519891 39.196393 11.866777 39.433868 C 12.213663 39.671344 12.942412 40.092431 13.322125 40.274800 C 13.701837 40.457169 14.487453 40.763405 14.891038 40.886368 C 15.294623 41.009331 16.118582 41.193495 16.536524 41.254152 C 16.954466 41.314809 17.797339 41.372558 18.219782 41.369479 L 39.438568 41.369479 L 37.258829 32.406817 L 16.950523 32.406817 Q 15.407665 32.406817 14.026269 29.491415 Q 12.644872 26.576013 11.335237 21.209024 Q 10.030087 15.802279 9.989721 12.882460 Q 9.949356 9.962640 11.505669 9.967058 L 55.145222 9.967058 Z" transform="scale(1.000000,1.000000) translate(198.617900,55.610980)" opacity="1.000000"></path>
        <path d="M 24.488220 20.979336 L 24.546526 20.979336 L 35.351018 4.573576 C 35.567192 4.246032 36.063411 3.636433 36.341007 3.357387 C 36.618603 3.078342 37.227288 2.577268 37.555371 2.357713 C 37.883455 2.138158 38.580627 1.765346 38.946274 1.613930 C 39.311922 1.462514 40.070120 1.232650 40.458928 1.155338 C 40.847736 1.078025 41.637094 1.000164 42.033747 1.000000 L 48.541561 1.000000 L 28.722113 30.745930 C 28.591877 30.941944 28.293288 31.306656 28.126402 31.473564 C 27.959516 31.640471 27.593836 31.940113 27.396839 32.071376 C 27.199841 32.202639 26.781399 32.425470 26.562009 32.515945 C 26.342618 32.606419 25.887809 32.743709 25.654622 32.789850 C 25.421436 32.835991 24.948079 32.882360 24.710233 32.882360 C 24.472387 32.882360 23.999030 32.835991 23.765844 32.789850 C 23.532657 32.743709 23.077848 32.606419 22.858458 32.515945 C 22.639068 32.425470 22.220625 32.202639 22.023628 32.071376 C 21.826630 31.940113 21.460951 31.640471 21.294064 31.473564 C 21.127178 31.306656 20.828590 30.941944 20.698353 30.745930 L 1.000000 1.000008 L 6.965115 1.000008 C 7.361116 1.000087 8.149198 1.077612 8.537392 1.154675 C 8.925586 1.231739 9.682625 1.460947 10.047736 1.611963 C 10.412847 1.762978 11.109053 2.134851 11.436714 2.353875 C 11.764376 2.572900 12.372353 3.072805 12.649670 3.351220 C 12.926988 3.629635 13.422812 4.237899 13.638874 4.564749 Z" transform="scale(1.000000,1.000000) translate(100.002230,167.345942)" opacity="1.000000"></path>
        <path d="M 46.473028 8.518204 L 12.234136 8.518204 L 23.020688 24.835618 L 36.691129 24.835618 L 36.691129 25.449620 C 36.691129 25.931111 36.538174 26.882237 36.387102 27.340163 C 36.236030 27.798088 35.792137 28.656112 35.504781 29.045646 C 35.217425 29.435181 34.526046 30.116112 34.130534 30.399126 C 33.735023 30.682139 32.863834 31.119324 32.398882 31.268113 C 31.933930 31.416902 30.968210 31.567546 30.479331 31.567546 L 20.872352 31.567546 L 20.872352 31.567546 L 17.172184 31.567546 L 1.774996 8.297340 C 1.634067 8.084818 1.400142 7.632443 1.308497 7.395201 C 1.216851 7.157959 1.086312 6.666845 1.048171 6.415808 C 1.010031 6.164771 0.988888 5.657534 1.006009 5.404263 C 1.023129 5.150992 1.112358 4.650992 1.183951 4.407150 C 1.255544 4.163308 1.451034 3.693572 1.573802 3.470389 C 1.696571 3.247206 1.989320 2.829364 2.157610 2.637118 C 2.325901 2.444872 2.702427 2.098169 2.908489 1.945713 C 3.114551 1.793258 3.557514 1.533659 3.791858 1.428014 C 4.026203 1.322370 4.515204 1.161830 4.767038 1.107862 C 5.018872 1.053894 5.531392 0.999807 5.789118 1.000001 L 54.137990 1.000001 C 54.137462 1.296023 54.089228 1.886161 54.041670 2.178455 C 53.994112 2.470749 53.852703 3.046181 53.759287 3.327544 C 53.665872 3.608907 53.434771 4.155454 53.297800 4.418952 C 53.160828 4.682450 52.845732 5.186645 52.668580 5.425785 C 52.491428 5.664926 52.100101 6.114343 51.887133 6.323233 C 51.674166 6.532123 51.216250 6.915688 50.972715 7.089180 C 50.729180 7.262672 50.215961 7.570933 49.947860 7.704752 C 49.679758 7.838571 49.123881 8.063933 48.837820 8.154781 C 48.551759 8.245630 47.966922 8.382539 47.669950 8.428178 C 47.372978 8.473816 46.773593 8.518899 46.473028 8.518204 Z" transform="scale(1.000000,1.000000) translate(62.189666,104.064054)" opacity="1.000000"></path>
        <path d="M 104.326648 8.292916 L 70.998221 58.062363 C 70.926900 58.169038 70.765188 58.368761 70.675466 58.460984 C 70.585743 58.553207 70.390045 58.720856 70.284876 58.795590 C 70.179708 58.870325 69.956468 59.000378 69.839317 59.055162 C 69.722167 59.109945 69.478737 59.198120 69.353463 59.231149 C 69.228188 59.264177 68.972587 59.307570 68.843315 59.317755 C 68.714043 59.327941 68.454688 59.325122 68.325675 59.312129 C 68.196662 59.299136 67.942096 59.250199 67.817592 59.214456 C 67.693088 59.178712 67.451694 59.085268 67.335799 59.027951 C 67.219905 58.970635 66.999633 58.835761 66.896165 58.758759 C 66.792697 58.681758 66.600802 58.509896 66.513168 58.415745 L 43.361325 33.625996 L 19.837222 58.437831 C 19.749019 58.531587 19.556052 58.702547 19.452087 58.779046 C 19.348121 58.855544 19.126943 58.989314 19.010644 59.046032 C 18.894346 59.102750 18.652251 59.194917 18.527455 59.229984 C 18.402659 59.265052 18.147631 59.312576 18.018454 59.324836 C 17.889276 59.337096 17.629727 59.338410 17.500428 59.327458 C 17.371130 59.316506 17.115620 59.271567 16.990464 59.237765 C 16.865309 59.203962 16.622264 59.114252 16.505380 59.058714 C 16.388495 59.003176 16.165933 58.871653 16.061174 58.796211 C 15.956416 58.720769 15.761675 58.551771 15.672498 58.458913 C 15.583320 58.366055 15.422825 58.165156 15.352169 58.057945 L 1.000000 36.413296 L 11.293197 36.413296 L 18.491706 47.301880 L 43.388235 20.864488 L 67.558185 46.983837 L 92.889763 8.531454 L 66.661183 8.531454 C 66.360618 8.531628 65.761316 8.485505 65.464428 8.439352 C 65.167539 8.393198 64.582950 8.255275 64.297052 8.163931 C 64.011155 8.072587 63.455683 7.846262 63.187823 7.711979 C 62.919962 7.577696 62.407296 7.268546 62.164072 7.094633 C 61.920848 6.920720 61.463620 6.536363 61.251027 6.327105 C 61.038433 6.117847 60.647911 5.667754 60.471187 5.428308 C 60.294462 5.188861 59.980268 4.684124 59.843768 4.420390 C 59.707267 4.156656 59.477144 3.609711 59.384231 3.328188 C 59.291318 3.046665 59.150936 2.470990 59.103900 2.178615 C 59.056864 1.886240 59.009682 1.296022 59.009683 1.000000 L 100.321505 1.000000 C 100.578625 1.000872 101.089726 1.056771 101.340776 1.111479 C 101.591826 1.166186 102.079164 1.327860 102.312658 1.433900 C 102.546152 1.539940 102.987431 1.799993 103.192685 1.952514 C 103.397940 2.105035 103.772970 2.451567 103.940595 2.643591 C 104.108219 2.835615 104.399842 3.252772 104.522168 3.475514 C 104.644494 3.698255 104.839367 4.166952 104.910797 4.410220 C 104.982227 4.653488 105.071434 5.152280 105.088700 5.404945 C 105.105967 5.657609 105.085427 6.163676 105.047740 6.414177 C 105.010052 6.664678 104.880705 7.154866 104.789788 7.391743 C 104.698871 7.628619 104.466635 8.080502 104.326648 8.292916 Z" transform="scale(1.000000,1.000000) translate(81.519320,104.068478)" opacity="1.000000"></path>
    </g>
</svg>