<?xml version="1.0" standalone="no"?><!DOCTYPE svg PUBLIC "-//W3C//DTD SVG 1.1//EN" "http://www.w3.org/Graphics/SVG/1.1/DTD/svg11.dtd"><svg t="1539361062642" class="icon" style="" viewBox="0 0 1024 1024" version="1.1" xmlns="http://www.w3.org/2000/svg" p-id="2105" xmlns:xlink="http://www.w3.org/1999/xlink" width="256" height="256"><defs><style type="text/css"></style></defs><path d="M726.784 192.032a35.84 35.84 0 0 0-36.256-35.52h-90.56v35.52c0 19.648-16.288 35.552-36.32 35.552H255.584a35.904 35.904 0 0 1-36.224-35.552v-35.52H110.624c-20 0-36.256 15.936-36.256 35.52v675.456c0 19.584 16.224 35.52 36.256 35.52h289.952l72.512 71.104H74.368c-40.032 0-72.48-31.84-72.48-71.104V156.512c0-39.264 32.448-71.104 72.48-71.104H219.36c0-19.648 16.224-35.552 36.224-35.552h308.064c20.032 0 36.32 15.904 36.32 35.552h126.816c40.096 0 72.48 31.84 72.48 71.104V482.72l-72.48 73.824V192.032z" p-id="2106" fill="#000000"></path><path d="M563.648 440.896H237.472a17.92 17.92 0 0 1-18.112-17.792v-17.76a17.92 17.92 0 0 1 18.112-17.76h326.176c10.016 0 18.176 7.968 18.176 17.76v17.76a17.952 17.952 0 0 1-18.176 17.792z m18.208 177.728a17.984 17.984 0 0 1-18.176 17.792H237.472a17.92 17.92 0 0 1-18.112-17.792v-17.76a17.92 17.92 0 0 1 18.112-17.792h326.176c10.016 0 18.176 7.936 18.176 17.792v17.76h0.032z m-59.168 201.888v104.064H626.72l306.784-306.88-104.032-104-306.784 306.816z m491.328-283.232a27.84 27.84 0 0 0 0-39.104l-64.96-64.928a27.488 27.488 0 0 0-19.552-8.096 27.456 27.456 0 0 0-19.52 8.096L859.232 484l104 104 50.784-50.72z" p-id="2107" fill="#000000"></path></svg>