<?xml version="1.0" standalone="no"?><!DOCTYPE svg PUBLIC "-//W3C//DTD SVG 1.1//EN" "http://www.w3.org/Graphics/SVG/1.1/DTD/svg11.dtd"><svg t="1546026088852" class="icon" style="" viewBox="0 0 1024 1024" version="1.1" xmlns="http://www.w3.org/2000/svg" p-id="2080" xmlns:xlink="http://www.w3.org/1999/xlink" width="200" height="200"><defs><style type="text/css"></style></defs><path d="M899.2 504c-1.6 14.4-11.2 33.6-40 51.2-64 36.8-168 94.4-195.2 108.8-14.4 27.2-73.6 137.6-110.4 200-17.6 32-40 38.4-56 38.4s-32-8-48-20.8c-52.8-48-140.8-131.2-163.2-152-30.4-4.8-155.2-27.2-224-40-20.8-3.2-36.8-16-44.8-32-6.4-12.8-11.2-33.6 1.6-62.4 30.4-65.6 83.2-176 96-204.8C112 360 96 238.4 88 168c-1.6-19.2 4.8-40 17.6-54.4 14.4-16 33.6-24 56-22.4 72 6.4 193.6 22.4 224 25.6 27.2-12.8 136-65.6 201.6-96 11.2-4.8 22.4-8 33.6-8 32 0 59.2 22.4 65.6 57.6 14.4 70.4 35.2 187.2 40 216 20.8 22.4 102.4 107.2 152 160 16 17.6 24 36.8 20.8 57.6zM800 475.2C750.4 420.8 660.8 328 660.8 328c-3.2-3.2-4.8-6.4-6.4-11.2 0-1.6-22.4-128-36.8-200-1.6-3.2-4.8-17.6-16-17.6-3.2 0-8 1.6-11.2 3.2-67.2 32-184 88-185.6 89.6-3.2 1.6-8 3.2-12.8 1.6-1.6 0-134.4-16-206.4-24-8 0-11.2 3.2-12.8 4.8-3.2 4.8-6.4 9.6-4.8 14.4 8 72 24 203.2 24 204.8 0 4.8 0 8-1.6 11.2 0 1.6-57.6 120-88 187.2-3.2 8-4.8 14.4-1.6 17.6 1.6 3.2 6.4 6.4 9.6 6.4 70.4 14.4 204.8 36.8 206.4 36.8 4.8 0 8 3.2 11.2 4.8 1.6 1.6 96 91.2 150.4 140.8 8 8 12.8 8 14.4 8 3.2 0 8-4.8 12.8-12.8 36.8-64 100.8-182.4 100.8-184 1.6-3.2 4.8-6.4 8-8 1.6 0 115.2-62.4 179.2-99.2 8-4.8 14.4-11.2 14.4-14.4 1.6 0-1.6-6.4-8-12.8zM979.2 984c-8 8-19.2 12.8-28.8 12.8-11.2 0-20.8-4.8-28.8-12.8L708.8 771.2c-16-16-16-41.6 0-59.2 16-16 41.6-16 59.2 0l212.8 212.8c14.4 17.6 14.4 43.2-1.6 59.2z" fill="" p-id="2081"></path></svg>