<?xml version="1.0" standalone="no"?><!DOCTYPE svg PUBLIC "-//W3C//DTD SVG 1.1//EN" "http://www.w3.org/Graphics/SVG/1.1/DTD/svg11.dtd"><svg t="1546025994069" class="icon" style="" viewBox="0 0 1190 1024" version="1.1" xmlns="http://www.w3.org/2000/svg" p-id="1969" xmlns:xlink="http://www.w3.org/1999/xlink" width="232.421875" height="200"><defs><style type="text/css"></style></defs><path d="M1164.99345 214.858396a994.742333 994.742333 0 0 0-318.446412-198.254575l-22.055822-7.930183a49.563644 49.563644 0 0 0-39.650915-5.947638h-4.708546a49.563644 49.563644 0 0 0-35.685824 42.624734 148.690932 148.690932 0 0 1-294.160226 4.460728 51.050553 51.050553 0 0 0-1.486909-13.630002A49.563644 49.563644 0 0 0 388.578968 1.982546h-4.460728l-35.438005 11.895274a991.272878 991.272878 0 0 0-322.163686 198.254576A49.563644 49.563644 0 0 0 3.965092 272.600041l49.563643 272.600042a52.537463 52.537463 0 0 0 71.619466 27.260004l117.961472-30.729459-42.872552 427.734247a49.737117 49.737117 0 1 0 99.127288 8.178001l46.837644-485.971528a49.563644 49.563644 0 0 0-3.221637-36.181461 47.828916 47.828916 0 0 0-21.312367-21.312366l-7.434547-3.221637a59.476373 59.476373 0 0 0-11.895274-2.726001 47.33328 47.33328 0 0 0-28.251277 6.443274l-135.804385 35.685824-37.668369-198.254576a796.239939 796.239939 0 0 1 261.448222-161.577479 247.81822 247.81822 0 0 0 469.119889 0 793.018302 793.018302 0 0 1 258.97004 160.586206l-37.66837 198.254576-133.57402-34.942369a47.33328 47.33328 0 0 0-28.251277-6.443274 59.476373 59.476373 0 0 0-11.895275 2.726001l-7.186728 3.221636a47.828916 47.828916 0 0 0-21.312367 21.312367 49.563644 49.563644 0 0 0-3.221637 36.429279l43.120371 432.690611H423.521337a49.563644 49.563644 0 0 0 0 99.127288h520.418261a49.563644 49.563644 0 0 0 14.621275-2.478183h2.478182l3.717274-1.486909a49.563644 49.563644 0 0 0 30.233822-49.563644l-45.102916-427.486428 117.713655 30.481641a49.563644 49.563644 0 0 0 43.863825 0l3.717273-2.230364a49.563644 49.563644 0 0 0 21.560185-24.781822l49.563644-272.600042a49.563644 49.563644 0 0 0-21.312367-58.4851z" p-id="1970"></path></svg>