<svg style="position: absolute; width: 0; height: 0;" width="0" height="0" version="1.1" xmlns="http://www.w3.org/2000/svg" xmlns:xlink="http://www.w3.org/1999/xlink"><defs><symbol id="space" viewBox="0 -250 1250 1250"><path d=""></path></symbol><symbol id="E" viewBox="0 -250 1250 1250"><path d="M675 1092 q-5 -5 -12 -8 l36 -47 l19 -23 l84 -85 l2 -2 l25 -21 q0 25 -9 33 q-12 10 -42 40 l-62 67 q-5 5 -18.5 22.5 q-13.5 17.5 -22.5 23.5 ZM30 442 q124 0 124 112 l0 430 q0 25 -6 42 q-6 16 -6 37 q51 0 82 6.5 q31 6.5 77 24.5 l299 127 q38 20 67 20 q19 -27 67.5 -82.5 q48.5 -55.5 71.5 -73.5 q49 -37 62 -57 q13 -19 106 -69 q-17 -36 -17 -107 q0 -41 -3 -83 q-2 -32 -2 -50 l1 -37 q0 -13 2 -23 q2 -10 2 -26 q0 -72 4 -100 q1 -19 0.5 -33 q-0.5 -14 -0.5 -23 q0 -22 13 -34 q13 -12 37 -18 q22 -6 33 -20 q-9 -12 -18 -12 l-2 0 q-10 1 -29 -5 q-27 -8 -51 -20 l-48 -22 l-25 -11 q-12 -5 -22 -13 l-69 51 l-36 25 q-24 16 -27 32 q66 0 98 31 q14 14 14 31 l0 347 q0 9 -21 29 l-28 26 l-34 36 l-1 1 l-1 1 l-92 99 q-21 25 -22 32 q-19 0 -87 -31 q-34 -14 -38 -16 q-43 -20 -50 -22 l-143 -44 q-8 -2 -17 -6 q-9 -3 -9 -30 l0 -430 q0 -19 7 -31 q7 -12 22.5 -20.5 q15.5 -8.5 20.5 -11.5 q18 -9 21 -20 q-60 0 -103 -25 q-27 -15 -84 -46 q-12 8 -17 13 q-12 10 -18 14 q-10 9 -16 13 l-43 31 q-31 22 -40 31 l-6 10 ZM427 322 l70 37 q48 26 59 42 q-6 9 -16 15 q-13 9 -22 22 q4 6 21 17 l133 -124 q24 -24 33 -27 q8 -1 16 -11 q-3 -8 -32 -26 l-17 -11 l-59 -29 l-37 -21 q17 -31 51 -56 q35 -26 44 -39 q-6 -10 -10 -14 l-101 -85 l-93 64 q-10 9 -16 12 l-16 11 q18 28 58 54 q40 29 54 49 q-2 11 -12.5 24 q-10.5 13 -26 25 q-15.5 12 -18.5 14 q-47 36 -63 57 Z"></path></symbol><symbol id="K" viewBox="0 -250 1250 1250"><path d="M565 142 q-54 0 -90 -13 l-81 -24 q-44 -12 -80 -24 q-5 -2 -16.5 -5.5 q-11.5 -3.5 -27 -7.5 q-15.5 -4 -26.5 -4 q-23 0 -48.5 15.5 q-25.5 15.5 -88.5 63.5 l-35 27 q-12 10 -12 30 q36 -9 32 -13 q-5 -5 83 18 q75 21 131 34 q56 13 91 13 q38 0 83 -30 l28 -20 l27 -20 q40 -31 58 -27 q59 14 77 25 q18 11 22.5 40 q4.5 29 4.5 120 q0 38 2 96 q2 74 2 124 q0 64 -4 112.5 q-4 48.5 -17 72.5 q-4 10 -25 24 q-7 6 -30 22 q-20 14 -23 25 q16 0 60 11 q40 11 54 13 q8 1 57 20 q45 19 68 19 q11 0 15 -4 q13 -11 122 -55 q3 -1 12.5 -4.5 q9.5 -3.5 20 -9.5 q10.5 -6 13.5 -15 q-98 0 -136 -25 q-20 -11 -32 -46 q-11 -28 -11 -133 q0 -139 1 -178 l0 -42 q0 -66 7.5 -115.5 q7.5 -49.5 33.5 -64.5 l77 -43 q8 -7 11 -15 q-37 0 -115.5 -21 q-78.5 -21 -108.5 -37 q-23 -10 -27 -10 l-2 1 q-3 4 -60 36 l-48 25 q-37 19 -49 19 ZM80 556 q55 -4 59 -10 l8 146 l0 42 q-2 21 0 41 l6 155 q2 18 2 24 l-1 15 q-3 16 -3 37 q-2 38 -12 61.5 q-10 23.5 -34 58.5 q111 10 178 26 l166 41 q15 0 31 -13 q24 -18 28 -20 q41 -28 52 -42 q11 -14 86 -55 q30 -18 31 -19 q-9 -13 -19 -13 q-10 1 -46 18 q-52 25 -53 24 q-5 0 -61 -13 l-32 -6 q-13 -1 -30 -5 q-21 -4 -31 -7 l-97 -15 l0 -389 q0 -29 3 -51 l6 -48 q22 12 67.5 26 q45.5 14 79.5 14 q29 0 42 -12 q5 -4 18 -19 q31 -34 43 -40 q14 -7 25 -33 q4 -9 4 -13 q0 -1 -40 6 q-26 4 -27 4 l-3 0 q-8 -2 -31 -3 q-40 -3 -95 -21 q-36 -11 -62 -11 q-13 0 -18 2 q-13 6 -22 12 q-9 8 -23 13 l-48 22 q-33 15 -49 22 l-80 28 q-16 6 -18 20 ZM317 866 q33 9 52 17 q3 2 8.5 5 q5.5 3 15.5 9 q16 10 23 10 q16 0 54 -23 q38 -23 45 -35 q-10 -10 -43 -28 q-38 -17 -44 -26 q12 0 46 -21.5 q34 -21.5 41 -31.5 q-10 -13 -46 -29 q-33 -15 -53 -29 q-31 17 -63.5 39 q-32.5 22 -35.5 35 q72 21 86 42 q-15 4 -49 28 q-34 24 -37 38 Z"></path></symbol><symbol id="W" viewBox="0 -250 1250 1250"><path d="M320 176 l-48 -6 q-15 -5 -15 -9 l1 -2 q3 -5 0 -12 q-15 2 -31 9.5 q-16 7.5 -32 18.5 q-16 11 -20 14 q-28 20 -67 32 q-37 11 -62 24 q-10 6 -12 14 q13 3 25 8 q10 6 29 9 q11 2 33 4 q22 2 33 4 l-2 94 q-2 18 -2 39 q0 12 2 60 q3 70 -9 85 q-12 15 -28 28 q-11 9 -28 28 l-17 20 q-2 0 -2 2 l-4 4 l-2 2 q-22 22 -28 31 q4 13 16 25 q50 62 50 90 q0 11 -7 17 q-28 25 -63 79 q22 33 29 37 q26 -6 66.5 -40.5 q40.5 -34.5 61.5 -62.5 q86 -110 86 -138 q0 -7 -4 -8 q-24 -11 -24 -41 l0 -347 q0 -10 16 -14 l59 -17 q31 -9 59 -22 q14 -7 29 -7 q9 0 20.5 3 q11.5 3 27 9 q15.5 6 20.5 8 q131 54 252 174 l68 77 q18 24 28 36 q15 19 26 38 q-17 2 -20 6 q-4 6 -13 11 q-34 20 -56 37.5 q-22 17.5 -27 40.5 l30 -15 q44 -22 123 -22 q18 38 23 55 q9 40 9 83 q0 59 -18 124 q-21 69 -51 111 q-68 92 -137 107 q-53 12 -76.5 16.5 q-23.5 4.5 -50.5 4.5 q-38 0 -87 -13 q-116 -28 -166 -120 q-12 -27 -13 -29 q-18 10 -35 15 l-17 8 l-16 13 q-37 34 -111 53 q-76 19 -91 39 q-8 11 -8 21 q4 -1 14 -4 l15 -4 l59 -4 q11 0 25 14 q15 14 31 28 q40 37 86 55 q46 18 94 22.5 q48 4.5 120 4.5 q57 0 109 -16 q52 -16 110 -46 q122 -59 191 -165 q55 -82 80.5 -147 q25.5 -65 30.5 -155 l0 -67 q28 3 50 22 q21 19 41 24 q0 -64 27 -88 q27 -23 35 -53 l-169 0 q-14 -53 -52 -118 q-16 -26 -36 -48 q-26 -30 -38 -47 q-13 -17 -28 -30 l-30 -29 q-20 -20 -58 -53 q-25 -20 -33 -25 l-85 -60 q-12 -12 -14 -15 q-14 -16 -14 -28 q0 -7 3 -13 q9 -20 12 -43 q-28 15 -36 16 q-10 3 -31 25 q-25 25 -67 45 q-40 21 -88.5 40 q-48.5 19 -75.5 19 ZM179 375 l0 -46 l0 -45 q30 0 30 6 q-1 5 -1 143 l0 89 l0 88 q-25 -16 -25 -61 l0 -46 l0 -46 q0 -20 -2 -42 q-2 -22 -2 -40 Z"></path></symbol><symbol id="F" viewBox="0 -250 1250 1250"><path d="M313 212 l-1 -83 q0 -28 8 -63 q3 -15 7 -21 q4 -6 7 -19 q18 4 74 28 q65 28 96 37 q19 6 24 13 q-22 6 -117 56 q-90 49 -98 52 ZM40 113 q3 3 10 3 q12 0 32 -7 q13 -3 23 -9 q14 -6 22 -8 q14 23 14 54 q0 27 -1 41 l-1 46 l0 467 q2 17 23.5 33.5 q21.5 16.5 57.5 38.5 q32 22 59.5 36.5 q27.5 14.5 70.5 36.5 l20 10 q29 15 92 39.5 q63 24.5 79 24.5 q8 0 48 -17 q40 -17 63 -28 l53 -26 l12 -6 l13 -7 q19 -9 22 -19 q-46 0 -57 8 q-11 9 -112 -29 q-26 -10 -93.5 -42 q-67.5 -32 -122 -64.5 q-54.5 -32.5 -54.5 -46.5 l0 -376 q0 -7 39 -32 l233 -123 l101 -48 q79 -37 97 -36 q38 5 53 18 q21 19 25 50 q4 24 2 68 q-1 9 -1 27 q0 24 3 45 q4 31 4 120 l-1 324 q0 27 -6 70 q-6 43 -14 56 q-6 10 -41 33 q-31 24 -39 36 q62 6 123 27 q126 43 117 38 q-3 -2 144 -63 q40 -16 43 -27 q-64 0 -101 -8.5 q-37 -8.5 -59 -38 q-22 -29.5 -22 -89.5 l0 -460 q0 -69 6.5 -125.5 q6.5 -56.5 31.5 -71.5 l94 -51 q-6 -7 -54 -16 q-24 -4 -60 -15 l-84 -24 q-25 -7 -37 -14 q-12 -7 -15 -7 q-3 0 -22 11.5 q-19 11.5 -45 25.5 l-84 40 q-14 6 -14 7 l1 0 q-38 0 -146 -44 q-111 -45 -124 -46 q-10 0 -74 34 q-62 33 -89 45 q-12 6 -18 8 q-131 59 -198 82 q-37 13 -42 21 ZM830 1085 q32 8 49 17 q7 3 26 14 q19 11 27 11 q8 0 20 -5.5 q12 -5.5 35 -20.5 q37 -22 42 -37 q-17 -3 -51 -26 q-35 -23 -52 -23 q-2 0 -26.5 14.5 q-24.5 14.5 -46 30.5 q-21.5 16 -23.5 25 Z"></path></symbol><symbol id="P" viewBox="0 -250 1250 1250"><path d="M312 169 q-26 0 -46 -6 q-28 -8 -47 -8 q-16 0 -30 12 q-18 16 -27 23 q-55 36 -90 39 q-36 5 -42 28 q9 13 57 21 q35 7 69 7 q34 0 67 -7 q33 -7 74 -20 q46 -15 68 -28 q13 -7 29 -7 q11 0 23 3 q84 22 155 72.5 q71 50.5 147 126.5 q0 0 10 10 l10 11 q8 8 10 11 q4 6 9 11 l41 47 q20 32 50 71 q30 41 40 87 q10 47 10 88 q0 54 -22 131 q-7 22 -12 36 q-5 14 -13 28.5 q-8 14.5 -12 22.5 q-45 82 -112.5 112 q-67.5 30 -171.5 30 q-157 0 -225 -122 q-7 -12 -8 -18 l-7 -17 q-25 12 -35 15 q-14 5 -32 21 q-33 32 -146 66 q-47 14 -55 35 q-3 6 6 6 q5 0 17 -3 q27 -6 44 -6 q27 0 36 13 q16 23 66 56 q15 10 31 18 q34 21 84 31 q50 10 107 10 q81 0 141 -18 q93 -27 177.5 -90 q84.5 -63 132.5 -143 l23 -43 q23 -37 26 -45 q44 -102 44 -224 q0 -68 -14 -123 q-16 -60 -49.5 -114 q-33.5 -54 -83.5 -115 q-60 -71 -139 -128 q-81 -58 -85 -65 q-13 -14 -18 -22.5 q-5 -8.5 -5 -17.5 q0 -8 4.5 -20.5 q4.5 -12.5 12.5 -28.5 q-35 3 -70 38 q-27 27 -62 45 q-42 20 -90 38.5 q-48 18.5 -72 18.5 ZM30 786 q30 0 57 3 q20 2 33 2 l26 -1 l120 -4 q86 0 119 -1 q49 0 83 39 q33 40 30 68 q-4 25 -4 51 q24 -18 24 -54 q0 -21 -5 -38 q-6 -24 -6 -42 q0 -34 19 -53 l61 -50 q13 -10 19 -19 l-302 0 q-30 -2 -54 -21 l-17 -12 q9 -13 42 -49 l49 -42 q-11 -16 -24 -26 q-10 -7 -28 -25 l-28 -22 q-21 -18 -32 -23 l-54 41 l-31 21 q-22 16 -26 21 q19 31 53 54 q31 21 46 41 q-12 25 -80 73 l-45 34 l-24 17 q-14 9 -21 17 Z"></path></symbol><symbol id="Z" viewBox="0 -250 1250 1250"><path d="M640 187 q29 0 46 -11 q16 -10 41 -10 q81 0 81 64 l-1 32 q-1 8 -1 22 q0 27 4 51 q1 11 3 17 q2 6 3 7 q1 0 1 -2 q1 -5 1 58 q0 24 2 58 q2 34 2 53 q-133 0 -210 -55 q-79 -55 -121 -65 q-11 9 -14 13 l-14 13 q-10 10 -34 24 q-17 12 -40.5 25.5 q-23.5 13.5 -34.5 15.5 l0 17 q44 11 110 56 q89 62 146 62 q18 0 35 -6.5 q17 -6.5 34.5 -19 q17.5 -12.5 24.5 -16.5 q81 -51 118 -55 l20 273 q1 8 -1 34 q-2 28 -2 36 q-5 50 -15 103.5 q-10 53.5 -23 82.5 q-19 0 -154 -21 q-135 -21 -147 -25 q-19 -6 -31 -11.5 q-12 -5.5 -24.5 -15 q-12.5 -9.5 -19.5 -14.5 q-28 14 -41 19 q-28 12 -41 19 l-183 124 q-24 16 -29 33 q26 6 46 -26 q20 -32 128 -32 q14 0 19 1 q8 2 14 2 q6 1 16 -1 q8 -2 21 -2 q43 0 94 13 q32 8 94 22 q16 4 24 5 q7 1 21 5 q22 5 23 5 q11 4 24 5 l44 10 q57 12 57 6 q-2 -5 53 -76 q25 -34 46 -51 q21 -18 56 -62 q43 -55 57 -98 q14 -43 14 -104 q0 -31 -1 -48 l-1 -71 q0 -52 -9 -131 q-13 -113 -13 -169 q0 -87 21 -151 q8 -24 17 -29 q7 -3 15.5 -8 q8.5 -5 19.5 -11 q53 -28 60 -39 q-25 -1 -94 -18 q-69 -17 -96 -28 q-53 -19 -69 -19 q9 0 -23.5 17.5 q-32.5 17.5 -99.5 46.5 q-6 2 -14 8 q-5 3 -13 6 l-28 11 q-12 4 -14 26 ZM40 539 q16 11 69 46 q42 29 59 53 q-8 13 -30 26 q-20 12 -32 24 q-5 5 -5 14 q0 6 1 10 q17 0 30 -15 l124 -107 q2 0 27 -19 q9 -5 14 -11 q4 -6 16 -9 q-10 -12 -16 -13 q-7 -1 -18 -11 q-27 -20 -51 -43 q-27 -23 -52 -40 q7 -10 90 -76 q20 -13 30 -28 q-4 -18 -9 -18 l-1 0 q-7 1 -38 -32 q-12 -12 -28 -32 q-16 -20 -19 -30 l29 -18 l29 -19 q0 0 -8 -21 q-14 4 -25 17 q-10 12 -21 21 l-98 67 l-27 18 q-18 12 -28 14 q4 14 29.5 37.5 q25.5 23.5 27.5 25.5 q0 0 31 31 q15 14 28 34 q-11 3 -18 11 l-15 14 l-52 41 q-38 29 -43 38 ZM272 100 l2 0 l-1 -5 q-1 -3 -1 5 Z"></path></symbol><symbol id="J" viewBox="0 -250 1250 1250"><path d="M798 1288 l0 -617 q8 1 39 24 q7 7 19 15 q13 10 13 19 l0 571 q-21 0 -34.5 -2.5 q-13.5 -2.5 -36.5 -9.5 ZM20 328 q32 16 81 19 q47 3 47 76 l7 220 q3 36 3 78 q0 75 -8.5 138.5 q-8.5 63.5 -29.5 81.5 l-33 24 q-27 21 -30 29 l29 6 l29 6 q11 3 28 7 l29 6 q9 5 24 10 l83 29 q14 4 14 4 l1 0 l32 -14 l80 -37 q62 -29 74 -30 l0 -8 q-83 0 -122 -20 q-39 -20 -50.5 -62 q-11.5 -42 -11.5 -127 l1 -113 q0 -125 13 -219 q7 -52 44 -72 q24 -14 39 -23 q26 -15 37 -18 l0 -8 q-24 -2 -93.5 -19 q-69.5 -17 -96.5 -27 q-79 -29 -71 -20 q9 9 -129 70 q-16 7 -20 13 ZM364 1358 q16 -8 45 -10 q29 -2 66 -2 q67 0 143 27 q69 24 87 24 q17 0 51 -21 q17 -11 49 -28 q53 -28 90.5 -46 q37.5 -18 77.5 -31 l74 -25 l0 -74 l0 -75 q0 -27 2 -73 q2 -46 2 -76 q0 -52 2 -150 q2 -96 2 -147 q-46 -30 -76 -40 q-35 -12 -70 -34 l-97 -64 q-36 -26 -83 -66 q-47 -40 -68 -65 q0 -2 -2 -2 l-7 -9 l-14 -16 q-32 -37 -46 -64 q-14 -27 -14 -51 q0 -23 11.5 -48.5 q11.5 -25.5 38.5 -72.5 l38 -69 q-30 8 -62 79 q-59 120 -136 216 q-30 34 -30 45 q0 36 102 104 l136 93 q21 15 44 30 l25 15 q16 10 16 19 l0 624 q-9 0 -41 -9 l-44 -10 q-31 -6 -38 -16 q-5 -8 -26 -23 q-9 3 -31 15 q-44 27 -85 44 q-41 16 -77 38 l-29 20 q-24 17 -26 24 ZM550 915 q17 5 47 19 q23 13 40 26 q10 7 53 -25 q7 -5 22 -18 q13 -11 24 -14 q-4 -12 -46 -37 q-3 -2 -23 -15 q-7 -5 -14 -8.5 q-7 -3.5 -12 -3.5 q-8 0 -18.5 7.5 q-10.5 7.5 -32.5 26.5 q-39 36 -40 42 ZM570 1064 q4 3 8 -1 q4 -4 -3 -1 l-5 -2 q-3 -1 -3 0.5 q0 1.5 3 3.5 Z"></path></symbol><symbol id="U" viewBox="0 -250 1250 1250"><path d="M621 1244 l-4 0 l3 5 l1 -5 ZM20 243 q36 0 74 16.5 q38 16.5 38 36.5 l0 526 q0 10 -3 10 l-1 0 q-4 0 -7 12 q-1 3 -1 32 q10 -2 20 -9 q6 -4 9 -7 l9 -8 q29 -24 38 -29 q6 -4 38 -24 l21 -12 q17 -9 22 -11 q-17 -73 -17 -147 l1 -175 l4 -116 q0 -13 2 -19 q0 0 2 -18 q0 -6 0 -20 q0 -14 4 -19 q4 -5 25 -15 q11 -5 29 -12 q15 -4 25 -17 q-9 -5 -38 -14 q-28 -6 -58 -19 q-102 -41 -99 -45 q2 -3 -67 44 q-3 3 -32.5 24.5 q-29.5 21.5 -37.5 34.5 ZM265 627 q17 5 27 14 q12 10 24 18 l50 37 q15 12 27 31 l-62 46 q-6 6 -6 14 q0 2 2 10 q18 0 25 -9 l28 -29 q17 -17 89 -73 l69 -54 l-19 -11 q-14 -6 -64.5 -48 q-50.5 -42 -53.5 -49 l91 -71 q21 -15 30 -28 q-3 -10 -8 -17 q-3 -2 -9 -4 q-3 0 -32 -30 q-8 -7 -26 -29.5 q-18 -22.5 -21 -31.5 l28 -19 q13 -9 30 -14 q-2 -12 -8 -25 l-37 31 q-30 25 -58 44 l-52 33 l-52 33 q10 15 43 45 q34 33 58 61 l15 18 l-98 75 q-29 23 -30 32 ZM352 230 q0 1 5 1 q1 0 1 -1 l0 -1 q-3 -1 -5 -0.5 q-2 0.5 -1 1.5 ZM621 1244 q10 0 28 -11.5 q18 -11.5 29 -22.5 q139 -130 179 -249 q41 -120 116 -123 q-19 -26 -24 -34 q-26 -43 -26 -74 l0 -86 l0 -29 l0 -29 q0 -15 2 -29 q2 -12 2 -29 l4 -240 l0 -31 l0 -31 q0 -18 3 -28 q2 -12 2 -30 q-1 -48 2.5 -66 q3.5 -18 15 -26 q11.5 -8 46.5 -21 q13 -4 25 -9 q4 -1 12 -5 l5 -2 l1 -1 l2 -1 l1 -1 l1 0 q-65 -5 -98 -10 q-33 -5 -68.5 -18.5 q-35.5 -13.5 -77.5 -42.5 l-100 78 q-31 23 -37 26 q8 11 50 24 q42 13 62 13 l0 244 q0 19 2 41 q2 24 2 38 l0 81 l0 80 l1 99 q2 102 2 181 q0 168 -55 235 q-24 27 -65 78 q-41 51 -44 61 Z"></path></symbol><symbol id="B" viewBox="0 -250 1250 1250"><path d="M269 578 l0 554 q0 30 -9 69.5 q-9 39.5 -19 68.5 q-14 35 -26 56 q-8 15 -17 25 q-10 11 -16 25 q19 -2 20 -3 q1 -1 34 -1 q44 0 82 35 q38 35 67 35 q4 0 39.5 -22 q35.5 -22 67 -44.5 q31.5 -22.5 33.5 -32.5 q-10 -2 -44 -18 q-34 -16 -40 -22 q-36 -33 -36 -88 q0 -44 -2 -124 q-2 -78 -2 -125 l0 -438 q0 -25 12 -46 q-15 -7 -55 -42 l-57 -48 q-21 -17 -52 -50 q-31 -33 -48 -56 q-28 -34 -37 -67 q-3 -9 -3 -21 q0 -24 13 -59 q7 -16 34 -69 q6 -13 20 -35 q13 -20 16 -33 q-16 5 -29.5 25 q-13.5 20 -27.5 47 l-23 43 q-8 13 -12 22 q-3 7 -11 21 q-33 57 -48 78 q-15 21 -61 78 q-12 15 -12 27 q0 7 5 15 q18 27 30 36 l74 59 q16 11 58 43 l23 18 l32 25 q27 21 27 39 ZM418 822 q5 9 33 25 q26 17 58 42.5 q32 25.5 37 39.5 l-63 45 q-5 5 -5 14 l2 12 q18 0 24 -9 q6 -10 27 -31 q25 -25 91 -75 q63 -47 65 -51 q-7 -9 -15 -12 q-8 -1 -19 -11 l-84 -70 q-12 -7 -15 -19 q9 -2 61.5 -45.5 q52.5 -43.5 58.5 -53.5 q-7 -14 -18 -19 q-11 -3 -43 -44 q-3 -3 -14.5 -14 q-11.5 -11 -23.5 -30 q13 -11 36 -23 q20 -11 20 -26 q0 -6 -2 -9 l-95 71 l-51 34 q-46 30 -53 31 q2 11 26 32 q40 39 50 49 q30 28 36 47 l-124 100 Z"></path></symbol><symbol id="L" viewBox="0 -250 1250 1250"><path d="M306 999 l0 -471 q3 2 14 10 q11 8 21 18.5 q10 10.5 10 24.5 l0 422 q-11 0 -21 -2 q-10 -2 -24 -2 ZM20 1107 l331 0 q0 53 -2 53 q-3 3 -10 50 q-12 71 -34 101 q-23 33 -41 65 q14 0 18 -2 q4 -2 24 -2 q56 0 91 35 q33 35 70 35 q9 0 40.5 -20.5 q31.5 -20.5 64 -44.5 q32.5 -24 36.5 -30 l-46 -23 q-42 -20 -56 -33 q-14 -13 -18 -40.5 q-4 -27.5 -4 -102.5 l0 -33 l135 2 q9 -3 19 -13 l70 -67 q10 -10 20 -15 q7 -4 17 -19 q-22 0 -33 3 q-9 4 -22 4 l-136 -3 q-25 0 -37 4 q-17 5 -33 5 l0 -501 q0 -11 3 -14 q3 -5 5 -15 q-2 0 -27 -22 l-135 -122 q-2 -2 -23 -27 q-34 -38 -49 -65.5 q-15 -27.5 -15 -54.5 q0 -29 15.5 -65 q15.5 -36 49.5 -92 l18 -36 q-26 18 -45 50 q-19 32 -44 84 q-35 72 -87 136 q-50 61 -50 73 q0 13 43 55 q27 28 57 47 q14 9 56 39 q13 12 13 17 l0 492 q-29 0 -63 -2 q-12 -1 -30 -1 q-15 0 -18 3 q-9 8 -19 20 q-11 13 -23.5 24.5 q-12.5 11.5 -46.5 33.5 q-8 5 -27 16 q-15 10 -22 18 Z"></path></symbol><symbol id="G" viewBox="0 -250 1250 1250"><path d="M398 99 q-16 0 -41 -14.5 q-25 -14.5 -50 -35.5 q-24 0 -82 34 q-62 36 -95 50 q-20 10 -32 14 q-14 5 -19 26 q19 -2 36 -11 q19 -10 26 -10 l61 35 q16 9 19 27 q5 37 5 83 q0 55 -9 101.5 q-9 46.5 -30 72.5 l-20 17 l-9 8 q106 0 145 16 q39 16 99 21 q-3 37 -42 84.5 q-39 47.5 -85 86.5 q-4 3 -14 10 l-13 12 l-83 71 l-13 12 q-12 9 -14 11 l-93 83 q-25 22 -25 59 q0 43 33 106 q36 71 60 71 q10 0 19 -13 q29 -44 113 -63 l0 -8 q-47 -11 -59 -15 q-15 -3 -36 -39 q-14 -21 -14 -55 q0 -25 8 -51.5 q8 -26.5 21 -47.5 q6 -9 12 -17 l285 -258 l35 -31 q11 -10 34 -36 l57 -63 q-59 -5 -110 -25 q-54 -20 -101 -20 l0 -245 q0 -20 26 -31 l63 -25 q22 -7 63 -18.5 q41 -11.5 51 -11.5 q11 0 32 7 q27 9 37 11 q21 6 22 10 l0 58 l0 89 l0 89 l4 265 q0 27 3 44 q2 22 2 43 q-1 137 -10 245 q-9 108 -40 149 q-5 6 -50 62 l-14 17 q-47 55 -56 73 q37 -9 97 -72 l4 -5 l6 -6 q32 -35 40 -50 q9 -17 30 -45 l10 -15 q45 -76 68 -123 q39 -80 97 -93 q-7 -9 -29 -30 q-25 -24 -25 -66 l0 -583 q0 -55 43 -85 l67 -28 q17 -4 22 -11 q-77 0 -140 -18 q-42 -10 -60 -23 l-44 -29 q-75 66 -168 109 q-20 10 -69 27 q-49 17 -61 17 Z"></path></symbol><symbol id="M" viewBox="0 -250 1250 1250"><path d="M339 146 q-37 0 -81 -31 q-43 -28 -64 -40 l-19 18 q-39 35 -69 49 q-33 15 -69 37 q-15 11 -17 20 q24 0 51.5 7 q27.5 7 63.5 19 l39 12 q-9 13 -50 43 q-38 28 -46 60 q12 -1 38 -12 q9 -4 27 -22 l25 -26 q12 -13 28 -25 q104 -72 135 -72 q12 0 42 12 l218 54 q15 3 28 3 q4 0 28 7 q14 6 16 6 l16 9 q-1 12 -9 32 l-22 62 q-30 85 -30 206 q0 37 3 78 q12 172 12 305 q0 94 -63 127 q-63 34 -86 67 q59 -4 101 -16 q18 -4 31 -4 q28 0 82 13 q18 4 51 10 q27 4 51 12 q15 6 53 12 q38 6 57 6 q9 0 56 -37 q44 -36 82 -57 q13 -7 16 -18 q-67 0 -92 -5 l-84 -14 q-52 -9 -94 -23 q-48 -14 -66 -16 q16 -28 28 -44 q15 -21 25 -52 q18 -56 18 -135 q0 -29 -2 -75 q-3 -35 -3 -74 l-1 -205 q0 -88 61 -183 q27 -41 95 -77 q68 -36 72 -42 q4 -7 4 -9 q0 -2 -1 -2 l-11 0 q-15 1 -38 12 q-19 9 -67 9 l-111 1 q-39 0 -73.5 -7 q-34.5 -7 -107.5 -30 l-29 -9 q-8 -3 -31 -10 q-63 -15 -78 -15 q-14 0 -72 38 q-13 10 -37.5 25.5 q-24.5 15.5 -29.5 15.5 Z"></path></symbol><symbol id="A" viewBox="0 -250 1250 1250"><path d="M272 215 l38 5 l0 827 q-28 -14 -37.5 -39 q-9.5 -25 -9.5 -67 l1 -72 l0 -111 l0 -112 q0 -96 -3 -163 q-1 -15 -1 -48 q0 -59 4 -116 q2 -36 5 -52 q3 -26 3 -52 ZM40 1114 q65 0 73 -1 q11 0 79 44 q40 26 55 26 q6 0 9 -4 q8 -12 66 -41 q13 -6 30 -19 l186 -120 q8 -5 12 -6.5 q4 -1.5 5 -1.5 q-2 2 23 2 q51 3 88 13 l18 6 q6 4 18 7 l147 56 q9 3 15 3 q11 0 18 -7 l29 -27 q41 -38 110.5 -90.5 q69.5 -52.5 99.5 -59.5 q0 -10 -8 -56 q-9 -42 -9 -105 l0 -155 q0 -75 8 -152 q6 -61 16 -58 q9 4 55 -24 q9 -6 12 -13 q-16 -6 -24 -7 q-12 -1 -27 -8 q-32 -10 -51 -19 q-74 -32 -96 -44 l-118 90 q-6 6 -6 10 q0 5 15 7 q36 4 64 21.5 q28 17.5 28 49.5 q0 488 -2 502 q-1 7 -3 11.5 q-2 4.5 -3 5.5 q-1 0 -1 -1 q-2 -6 -5 4 l-2 0 l-1 0 l-235 -64 q-21 -5 -21 -24 q0 -57 20 -63 q20 -6 40 -22 q9 -5 10 -14 q-65 0 -115 -33 q-53 -33 -71 -37 l-106 80 q-27 18 -30 31 q47 0 81 17 q34 17 34 58 q0 50 -3 64 q-3 13 -27 25 l-115 67 l-15 9 q-2 1 -14 8 q-28 18 -30 18 l-19 -5 l0 -836 q22 1 59 20.5 q37 19.5 49 37.5 q16 35 20 37 q0 -30 7 -59 q12 -53 39 -81 q27 -29 33 -50 q-38 -3 -106 -29 q-65 -25 -72 -25 q-7 0 -69 49 q-63 49 -99 69 l-78 38 q-35 15 -40 18 q28 42 37 85.5 q9 43.5 9 108.5 l0 236 q0 18 -3 33 q-2 12 -2 18 l1 11 q1 9 1 31 q0 47 -7 104.5 q-7 57.5 -18 98.5 q-4 16 -8 26 q-5 10 -9 22 q-13 32 -24 46 q-13 17 -27 37 ZM508 592 q26 3 58 22 q32 19 42 19 q14 0 29 -9 l25 -15 q41 -26 45 -38 l-99 -53 q-22 10 -54 33 q-8 5 -24 17 q-21 18 -22 24 Z"></path></symbol><symbol id="Q" viewBox="0 -250 1250 1250"><path d="M163 832 l0 -579 q29 8 29 37 l0 497 q0 6 -12 23.5 q-12 17.5 -17 21.5 ZM80 228 q14 0 22 2 q6 2 19 2 l0 712 q0 18 15.5 48.5 q15.5 30.5 30.5 42.5 q11 12 45 20 q10 -17 10 -25 q0 -4 -3 -4 l-1 0 q-10 1 -25 -13 q-14 -13 -14 -52 q0 -24 5 -50 q5 -26 13 -40 q6 -8 8 -14 q13 -26 30 -42.5 q17 -16.5 50 -42.5 l35 -31 q24 -20 58 -54 q36 -34 62 -54 q62 -50 126 -105 q62 -53 128 -104 l70 -54 l49 -39 q36 -29 49 -33 q25 17 44 63.5 q19 46.5 29 102 q10 55.5 10 95.5 q0 109 -19.5 201 q-19.5 92 -59.5 154 q-6 10 -12 15 q-5 4 -13 14 q-8 8 -12 14 q-6 8 -13 15 l-129 144 q-20 24 -23 35 q17 -9 59 -9 q81 0 231 33 l33 9 q19 6 33 8 l81 -88 q20 -16 56 -41 q36 -25 49 -28 q-3 -10 -12 -25 q-42 29 -52 37 q-4 4 -18 4 q-23 0 -91 -13 l-179 -41 q5 -17 47 -65 q37 -42 58 -69 l22 -28 q38 -42 60 -81 q22 -39 49 -104 q21 -51 27 -99 q6 -48 6 -120 q0 -106 -47 -167 q-49 -59 -56 -74 q-6 -10 -5 -11 q0 -2 -9 -12 q-14 -15 -41 -38 q-11 -8 -20 -18 q-9 -9 -22 -18 q-41 -25 -57 -25 q-8 0 -15 5 q-7 5 -17 19.5 q-10 14.5 -15 21.5 q-59 85 -168 139 l-25 12 q-18 7 -18 21 q0 6 7 6 q9 0 34.5 -11 q25.5 -11 40.5 -19 q47 -20 56 -26 q8 -5 46 16 q26 15 29 26 q-10 11 -56 43 l-114 88 l-29 23 l-29 24 l-223 181 l0 -413 q31 -8 41 -21 q-9 -6 -54 -18 q-45 -11 -96 -38 l-34 -16 q-4 -1 -6 -2 q-2 -1 -2 -2 l1 0 l-8 -3 q-24 14 -74 52.5 q-50 38.5 -58 51.5 ZM511 749 q79 20 80 42 q0 6 7 6 q17 0 76 -46 q19 -13 23 -14 q-5 -14 -16 -20 q-13 -6 -30 -18 q-10 -6 -18 -12 q-8 -6 -16 -10 q-8 -4 -14 -4 q-8 0 -20 7.5 q-12 7.5 -32 26.5 l-23 18 q-16 14 -17 24 Z"></path></symbol><symbol id="Y" viewBox="0 -250 1250 1250"><path d="M50 502 q0 74 7.5 130 q7.5 56 31.5 99 q41 71 100 123 q21 20 34 26 q12 6 33 20 q36 25 71 40 q60 27 67 27 l59 13 l28 7 q22 6 22 7 q0 1 93 -41 l49 -21 q37 -12 46 -25 l-73 -6 q-109 -15 -109 -139 l-1 -241 q0 -140 22 -188 q16 -33 40 -43 q50 -24 70 -19 q28 7 48 11 q46 11 82 66.5 q36 55.5 54 116.5 q18 63 18 154 q0 106 -24 206.5 q-24 100.5 -66 150.5 l-158 178 q-12 15 -21 22 q-7 6 -10 21 q20 -9 59 -9 q79 0 228 32 l33 9 q15 6 32 9 q13 -9 26 -25 q8 -10 14 -17.5 q6 -7.5 11 -13.5 l10 -10 q97 -83 129 -91 q-5 -17 -16 -25 q-37 25 -44 37 q-1 4 -18 4 q-32 0 -98 -13 l-133 -30 q-30 -8 -43 -10 q1 -8 17 -29 l67 -82 q66 -74 106 -139.5 q40 -65.5 60 -141 q20 -75.5 20 -171.5 q0 -59 -24 -117 q-24 -58 -63 -107 l-55 -65 q0 -2 -2 -2 q-25 -25 -60 -51 q-35 -26 -53 -26 q-21 0 -38 24 l-26 41 q-8 12 -33.5 37.5 q-25.5 25.5 -31.5 25.5 q-41 0 -112 -19.5 q-71 -19.5 -109 -36.5 q-13 -6 -25 -6 q-10 0 -21 6 q-47 29 -58 34 l-56 26 q-16 7 -16 21 q53 0 94 26 q27 19 27 89 l-1 55 q0 47 4 75 l0 247 q0 7 -6 7 q-10 0 -29 -13 q-45 -32 -83.5 -83.5 q-38.5 -51.5 -61.5 -112 q-23 -60.5 -23 -116.5 l0 -49 q0 -34 4 -59 q4 -25 19 -60 q8 -21 44 -61 q36 -40 76 -71 q40 -31 64 -31 q15 0 50 22 q32 21 60 34 q22 10 30 10 q10 0 20.5 -8 q10.5 -8 35.5 -32 q14 -14 28 -23 q16 -10 25 -24 q-32 0 -66.5 -17 q-34.5 -17 -80.5 -47 q-12 -8 -25 -8 q-13 0 -22 10 q-15 20 -79 63 q-58 39 -123 98 q-65 59 -96 105 q-35 52 -55 103.5 q-20 51.5 -20 106.5 Z"></path></symbol><symbol id="S" viewBox="0 -250 1250 1250"><path d="M318 417 l0 -252 q0 -15 16 -19 q17 -5 26 -9 q27 -9 78 -30 q50 -21 87 -21 q7 0 31 10 q25 11 52 11 l0 137 q0 30 2 72 q2 44 2 73 l-65 33 q-21 14 -29 21 q-19 14 -33 14 q-8 0 -80 -23 q-58 -17 -87 -17 ZM20 194 q19 -2 36 -11 q19 -10 26 -10 q0 0 28 18 q55 34 55 90 l0 34 q0 58 -7 102 q-7 44 -29 72 q-5 7 -16 15 q-10 7 -14 13 q6 0 19.5 0 q13.5 0 32 1 q18.5 1 37.5 5 q64 13 64 12 l44 29 q8 5 28 22 l16 13 q32 28 40 29 l106 -113 q42 -38 68 -59 q26 -21 58 -39 q0 45 2 123 q2 80 2 126 q0 26 2 60 q2 36 2 60 q0 95 -12 187 q-12 92 -46 134 l-84 103 q-25 35 -27 39 q26 -5 62 -38.5 q36 -33.5 65 -70.5 l21 -28 q22 -31 38 -57 q12 -20 17 -30 q12 -21 18 -31 q23 -36 51 -93 q29 -57 80 -62 q-8 -10 -18 -14 q-10 -4 -21 -25 q-6 -10 -12.5 -31.5 q-6.5 -21.5 -6.5 -32.5 l0 -542 q0 -73 36 -109 q26 -26 59 -31 q30 -3 41 -17 q-63 0 -122.5 -12 q-59.5 -12 -98.5 -40 q-10 -6 -12 -10 l-11 -9 q-20 13 -32 24 l-32 24 q-48 37 -49 36 q-2 0 -55 25 q-20 10 -41 17 l-85 27 q-40 0 -66 -25 q-27 -24 -29 -24 q-11 0 -32 9 l-32 14 q-15 7 -28 15 q-14 10 -27 17 q-49 27 -78 36 q-30 9 -31 33 ZM778 542 l37 27 q24 18 37 26 l37 27 q17 14 38 27 q-15 22 -43 40 q-26 17 -32 39 q8 11 15 11 q6 0 10 -7 q12 -17 37 -42 l4 -4 l15 -15 l57 -54 q19 -19 36 -29 q14 -8 25 -17 q10 -8 17 -42 q-19 -26 -52 -51 l-64 -40 q3 -10 23 -30 q20 -20 23 -23 l13 -12 q10 -10 14 -17 q4 -6 15 -16 q11 -9 15 -9 l1 0 q3 1 7 -1 q4 -3 5 0 l0 -12 q0 -7 -24 -32 q-23 -23 -31 -33 q-61 -60 -61 -74 q0 -5 7 -4 q29 3 34 -56 q-24 15 -106 84 q-10 10 -26 21 l-27 22 q-19 15 -28 22 q-19 15 -24 21 q13 20 72 67 q61 48 73 66 q-13 20 -74 59 q-61 38 -75 61 Z"></path></symbol><symbol id="D" viewBox="0 -250 1250 1250"><path d="M1052 1186 q-17 0 -21 -4 q-7 -4 -21 -5 l0 -612 q19 13 40.5 30.5 q21.5 17.5 21.5 27.5 q0 51 2 209 l0 36 l0 46 q0 111 -6 192 l-4 45 q-3 35 -12 35 ZM50 557 q35 -8 63 -27 q8 -6 22 -6 q34 0 106 35 q7 3 26.5 13 q19.5 10 34.5 16.5 q15 6.5 27 6.5 q16 0 33 -11 q17 -11 59 -44 l33 -27 l19 -16 q13 -11 20 -15 q18 34 18 81 q0 36 -1 54 l-1 59 q0 20 -3 38 q-1 6 -1 17 q0 10 1 15 l-1 220 q0 52 1 77 q0 38 -6 71 q-6 29 -29 46 q-39 26 -44 34 q51 -12 97 -12 q37 0 70 7.5 q33 7.5 93 25.5 q10 4 18.5 6.5 q8.5 2.5 15.5 4.5 l35 15 l1 0 l2 1 l139 39 q13 0 101 -50 q84 -49 145 -69 q32 -10 47 -16 q27 -9 47 -14 q0 -29 2 -73 q2 -44 2 -72 l4 -455 q-31 -21 -72 -37 q-40 -14 -74 -36 q-66 -39 -133.5 -91 q-67.5 -52 -112.5 -102 q-88 -94 -82 -128 q6 -32 6 -86 q-10 9 -48 80 q-22 36 -42 60 q-21 24 -42 54 q-6 8 -10.5 15.5 q-4.5 7.5 -4.5 13.5 q0 16 30 43 l2 2 q10 11 19 18 q8 7 18 20 q-47 31 -40 29 q9 -3 -48 23 q-45 21 -69 29.5 q-24 8.5 -45 8.5 q-20 0 -43 -7.5 q-23 -7.5 -78 -29.5 q-32 -13 -52 -26 l-27 -14 q-5 -2 -25 -13 q-6 6 -13 11 l-104 83 q-30 25 -58 45 q-35 28 -41 29 q-7 3 -7 31 ZM654 780 l4 -91 l-1 -103 q-1 -17 -1 -42 q0 -43 27 -112 q11 -24 15 -30 q9 -14 14 -14 q5 0 8 -13 q12 3 31 17 l29 23 q29 25 61 41 l128 80 l0 629 q-35 -8 -82 -22 l-153 -54 q-27 -12 -35 -13 q-9 -1 -41 -19 l1 -232 l-3 -24 q-2 -10 -2 -21 Z"></path></symbol><symbol id="I" viewBox="0 -250 1250 1250"><path d="M426 164 q-31 -20 -92.5 -44.5 q-61.5 -24.5 -101.5 -34.5 q-4 -1 -38 -7 q-45 -8 -39 -14 l-66 49 q-53 43 -69 47 l0 9 q32 1 98.5 14 q66.5 13 123.5 31.5 q57 18.5 68 32.5 q-18 5 -57.5 42 q-39.5 37 -47.5 52 q-7 12 -7 16 q0 3 3 3 l3 -1 q8 -2 11 -2 q4 0 12 2 q16 6 41 23 q27 19 42 22 l6 -4 l6 -4 q7 -7 13 -15 q4 -6 25 -22 q43 -29 53 -46 q-16 -10 -38 -30 q-24 -20 -36 -24 q10 -15 43 -35 q26 -16 51 -32 q20 -12 39 -12 q9 0 18 3 q47 16 131.5 37 q84.5 21 130.5 27 l34 9 q25 7 25 20 q0 6 -2 9 q-12 22 -29 81 l-11 34 q-17 58 -17 161 q0 38 5 141 q0 14 2 24 q2 10 2 26 q0 39 2 101 q2 64 2 102 q0 32 -16 65 q-16 33 -39.5 54 q-23.5 21 -43.5 21 l-57 0 q-37 0 -62.5 -5.5 q-25.5 -5.5 -77.5 -25.5 q-80 -32 -119.5 -107 q-39.5 -75 -39.5 -176 q0 -36 32 -73.5 q32 -37.5 67 -55.5 q6 -3 34.5 -15.5 q28.5 -12.5 64.5 -33.5 q36 -21 38 -41 q-18 2 -47 19 q-38 23 -115 57 q-77 34 -120 47 q-15 5 -56 20 q-28 12 -47 14 l0 12 q31 0 62 -12 q34 -11 58 -17 q-48 71 -74 105 q-34 46 -34 148 q0 58 32 108 q22 36 72 73 q28 22 46 24 l87 20 q18 5 48 5 q23 0 54 -3 q68 -8 105 -24 q42 -18 65 -22 q23 -3 54 -20 q47 -24 84 -61 q16 -15 26.5 -27.5 q10.5 -12.5 21 -30 q10.5 -17.5 15.5 -24.5 q23 -39 33 -73 q10 -34 12 -65.5 q2 -31.5 3 -99.5 q0 -16 -2 -34 q-3 -14 -3 -32 l1 -145 q0 -61 -4 -88 q-5 -29 21 -106 q6 -20 20 -50 q13 -28 29 -48 q16 -20 44 -39 q28 -19 35 -24 q36 -24 58 -32 q18 -8 28 -26 q-18 0 -39 7 q-22 7 -57 12 l-111 5 q-92 0 -190 -37 q-99 -37 -153 -37 q-17 0 -45 22 q-29 21 -44 30 l-46 29 q-27 17 -47 22 Z"></path></symbol><symbol id="O" viewBox="0 -250 1250 1250"><path d="M318 885 l25 0 l0 327 q-21 -10 -29 -12 l0 -244 q0 -10 -1.5 -17 q-1.5 -7 -2.5 -10.5 q-1 -3.5 -1 -1.5 q0 -6 9 -42 ZM40 956 q5 3 12 3 q13 0 32 -9 l24 -10 l19 -9 q17 31 17 37 l0 331 q0 48 -24 50 q-24 3 -42 29 q94 -8 130 -8 q36 0 74 5.5 q38 5.5 124 22.5 l34 7 q22 5 31 5 q29 0 116 -40 l34 -14 q34 -15 53.5 -21.5 q19.5 -6.5 39.5 -6.5 q35 0 90 27 q34 19 57 30 q23 11 43 11 q9 0 13 -2 l208 -157 q-22 6 -21 9 q1 4 -37 4 q-46 0 -155 -56 q-2 -1 -13 -8 q-23 -12 -27 -14 q-8 -5 -24 -13 l-170 132 q-23 0 -47 -5 q-24 -5 -29 -6 q-170 -31 -210 -51 l0 -331 q29 8 69 26 q40 18 53 34 l11 15 q2 3 58 -29 l169 -87 q0 -19 -3 -41 q-2 -16 -2 -25 q0 -9 2 -29 q3 -32 3 -77 l0 -81 q0 -15 -56 -38 q-55 -21 -83 -38 q-130 -75 -247 -192 q-31 -29 -59.5 -72 q-28.5 -43 -28.5 -73 q0 -36 32 -93 l53 -98 q-26 6 -42 40 q-10 21 -17 34 q-7 13 -11 21 l-30 54 q-16 31 -31 55 q-15 23 -35 48 q-24 30 -36 47 q-6 8 -11.5 14.5 q-5.5 6.5 -9.5 13 q-4 6.5 -4 11.5 q0 7 6.5 16.5 q6.5 9.5 22.5 25.5 q0 2 2 2 q19 20 90 75.5 q71 55.5 90 64.5 l105 64 q42 28 44 42 l0 129 q-45 5 -86 29 q-38 22 -83 43 q-45 22 -131.5 59.5 q-86.5 37.5 -129.5 51.5 l-8 2 l-8 3 q-9 5 -10 11 ZM545 794 l0 -140 q34 9 34 57 q0 52 -4 76 q-3 17 -7 17 l-2 -1 q-4 -5 -21 -9 ZM757 695 q30 3 57 24 q26 22 38 22 q12 0 49.5 -27.5 q37.5 -27.5 45.5 -38.5 q-28 -15 -54 -34 q-28 -20 -45 -24 q-23 15 -52 38.5 q-29 23.5 -39 39.5 Z"></path></symbol><symbol id="C" viewBox="0 -250 1250 1250"><path d="M277 103.5 q29 0 79.5 14 q50.5 14 82.5 27 q51 22 66 62 l10 19 l1 2 l0 1 q11 24 11 64 l-1 56 q-1 14 -1 40 q0 21 -4 32 q-3 10 -3 19 l0 7 q2 26 -3 56 l-6 130 q-37 -18 -51 -34 q-30 -27 -47 -41 q-27 -23 -30 -28 q23 -32 78 -62 q39 -21 39 -40 q0 -5 -7 -14 q-3 -2 -4 -3 q-1 -1 -1 1 q0 1 -9 -6 q-11 -6 -37.5 -38 q-26.5 -32 -38.5 -49 l28 -18 q15 -11 30 -15 q0 -8 -4 -25 q-14 4 -29 19 q-15 15 -17 17 q-24 23 -102 69 l-51 36 q3 7 26 32 q16 20 45 44 q29 26 41 44 l-95 79 q-16 10 -17 11 q-12 9 -12 21 q14 5 34 19 q21 16 32 23 l58 54 q-10 14 -45 37 q-25 19 -25 28 q0 9 25 9 q3 -11 14.5 -23 q11.5 -12 30.5 -27 l2 -1 l38 -33 q74 -58 101 -73 l4 79 q0 46 -12 143.5 q-12 97.5 -25 124.5 q-70 -16 -121 -16 q-49 0 -121 15 q-26 6 -39 19 q-38 38 -102 76 q-59 35 -73 47 q12 0 31 -9 q18 -8 52 -16 q58 -11 102 -11 q39 0 79 6 q40 6 92 19 l250 60 q11 2 33 8 q78 18 130 26.5 q52 8.5 105 8.5 q38 0 77 -6 q22 -3 63 -37 q35 -28 66 -50 q17 -9 26 -20 l-96 5 q-50 0 -100 -12 l-99 -21 l-63 -15 q-68 -14 -125 -33 l-122 -35 q2 -10 21 -20 l13 -7 l14 -8 q38 -21 55 -28 q22 -9 58 -25 q44 -19 63 -24 l0 -8 q-50 0 -64 -38.5 q-14 -38.5 -15 -102.5 l9 -375 q2 -11 6 -24 q3 -9 5 -23 q2 -20 2 -31 l-1 -24 q-2 -32 1 -56 l15 -96 q-25 -2 -97 -37 q-72 -35 -133 -68 q-35 -18 -43 -12 l-74 51 q-19 12 -46 30 q-27 18 -33 28 Z"></path></symbol><symbol id="X" viewBox="0 -250 1250 1250"><path d="M373 301 q-37 0 -73.5 -15 q-36.5 -15 -96.5 -47 q-30 20 -77 55.5 q-47 35.5 -55 47.5 q41 1 73 18 q38 20 38 52 l0 447 q0 2 -23 31 l-68 92 q-33 49 -55.5 88 q-22.5 39 -14.5 54 q7 -1 21 -25 q14 -25 47 -67 q33 -42 57 -68 l48 -52 l23 -24 q9 -10 26 -22 l113 -82 l33 -21 q19 -11 34 -11 q-11 -13 -32 -24 q-22 -12 -28 -29 q-6 -14 -6 -58 q0 -29 3 -74 l1 -23 q3 -51 3 -90 q0 -58 -8 -95 q15 -8 37 -12 q36 -7 39 -8 q48 -13 87 -31 l84 -38 q17 -8 18 -11 q1 -4 25 -4 q43 0 87.5 30 q44.5 30 78 74 q33.5 44 43.5 81 q15 56 15 141 q0 62 -8 125.5 q-8 63.5 -21 111.5 q-36 127 -142 210 l-64 56 q-21 17 -38 28 q-17 11 -40 22 q-23 11 -31 15 q-27 13 -29 33 q44 -3 67 -29 q15 -18 37 -18 q9 0 19 3 q41 14 71.5 30 q30.5 16 37.5 39 q18 -2 34 -23 q17 -21 75 -51 l86 -50 q12 -8 16 -29 l-66 28 q-3 0 -22 -19 q-19 -15 -44.5 -30 q-25.5 -15 -41.5 -17 q1 -9 23 -26 q10 -7 26 -28 l94 -114 q8 -10 12 -13 l11 -12 q52 -65 85.5 -160 q33.5 -95 33.5 -190 q0 -83 -28.5 -153.5 q-28.5 -70.5 -90.5 -118.5 q-23 -18 -37 -30 l-28 -24 q-7 -6 -7 -25 q0 -21 5 -41 q1 -6 5 -17 q3 -6 4 -16 q-33 3 -77 44 q-46 43 -87 74 q-101 79 -177 104 q-91 31 -160 31 Z"></path></symbol><symbol id="T" viewBox="0 -250 1250 1250"><path d="M50 694.64 q34 0 64.5 16 q30.5 16 30.5 41 l0 36 q1 30 1 130 q0 91 -12 109 q-8 11 -23 21 q-15 12 -20 19 q33 3 93 25 q59 22 76 19 q9 -1 71.5 -32.5 q62.5 -31.5 70.5 -40.5 q-39 -9 -77.5 -25.5 q-38.5 -16.5 -38.5 -36.5 l0 -215 q0 -19 18 -53 q8 -13 13 -20 q11 -14 14 -22 l-29 -12 q-20 -6 -52 -23 q-69 -34 -74 -39 q-4 -4 -65 47 q-15 13 -33 27 q-18 13 -28 29 ZM319 313.64 q0 30 7 30 q3 0 9 -9 q16 -25 79 -25 q48 0 85 23 q38 24 87 41 q10 2 14 2 q21 0 43 -16 q39 -26 91 -70 q12 -11 48 -36 q35 -25 42 -35 q-17 5 -17 8 q0 0 0.5 0.5 q0.5 0.5 0.5 0.5 q3 3 -38 3 q-18 0 -40.5 -6.5 q-22.5 -6.5 -46.5 -17 q-24 -10.5 -32 -14.5 q-21 -7 -52 -26 q-18 -10 -27 -14 l-26 -13 q-6 6 -13 11 l-14 11 q-10 8 -17 15 q-67 56 -117 94.5 q-50 38.5 -66 42.5 ZM576 901.64 q30 -3 60 -27 q11 -8 28 -8 q34 0 89 27 l64 31 q30 13 48 13 q5 0 11 -2 q15 -6 90 -66 q32 -25 57 -43 q44 -32 50 -41 q-17 4 -41 4 q-50 0 -104 -25 l-125 -62 l-178 141 q-37 28 -42 29 q-7 3 -7 29 Z"></path></symbol><symbol id="H" viewBox="0 -250 1250 1250"><path d="M541 797 l0 -546 q46 13 46 54 l0 442 q0 9 -18.5 27 q-18.5 18 -27.5 23 ZM40 251 q68 0 93.5 28.5 q25.5 28.5 26.5 87.5 q0 16 3 22 q2 10 2 23 l-1 380 l-7 42 q-5 25 -5 42 q15 -3 30 -3 q34 0 72 13 l40 14 q11 4 59 20 q25 8 58 24 q30 15 60 15 q21 -42 67 -100 q46 -58 80 -85 q18 -15 17 -14 q52 -40 78 -56 l106 -64 q-8 -8 -30 -23 q-24 -17 -27 -32 l-1 -334 l81 -22 l24 -8 q3 -1 15.5 -5.5 q12.5 -4.5 21.5 -4.5 q9 0 21.5 5 q12.5 5 30.5 14 l83 80 q24 33 31 45.5 q7 12.5 11.5 32 q4.5 19.5 12.5 73.5 q5 42 5 84 q0 109 -28.5 214 q-28.5 105 -86.5 161 q-17 19 -23 27 q-10 13 -27 26 l-15 13 q-13 13 -13 13 l-57 46 q-65 47 -94 52 q-28 4 -31 35 q38 -9 54 -20 q22 -15 38 -25 q7 -4 15 -4 q9 0 17 4 q19 7 29 9 q8 1 36 17 q15 10 28 23 q9 12 24 21 q20 -14 33 -30 q12 -15 70 -44 q32 -15 58 -33 q27 -18 31 -22 q4 -4 15 -24 q-14 2 -36.5 11.5 q-22.5 9.5 -34.5 17.5 q-16 -11 -29 -25 q-16 -16 -47 -31 l-16 -7 q-5 -1 -15 -7 q4 -6 26 -27 q22 -20 40 -44 q49 -64 95 -114 q41 -45 75 -129 q50 -124 50 -230 q0 -175 -133 -280 q-6 -5 -13 -10 q-7 -5 -14 -11 l-40 -29 q-12 -8 -12 -24 q0 -9 5 -24 q7 -19 12 -38 q-13 3 -35 30 q-21 25 -34 38 l-19 18 q0 2 -2 2 q0 2 -2 2 q0 2 -2 2 q-33 32 -87.5 68.5 q-54.5 36.5 -88.5 41.5 q-5 1 -14 1 q-51 0 -131 -45 l-34 -15 q-15 -6 -31 -15 l-116 87 q-12 10 -13 16 l25 5 q0 84 -3 342 l-1 131 q0 90 8 106 q-16 0 -79.5 -16.5 q-63.5 -16.5 -95.5 -27.5 q-36 -9 -36 -72 l-1 -220 q-1 -40 -1 -101 q0 -93 7 -113 q5 -12 27 -27 q22 -15 38 -19 l0 -8 q-27 0 -48.5 -6.5 q-21.5 -6.5 -50.5 -19.5 q-23 -9 -43 -21 l-40 -24 q-18 11 -76.5 55 q-58.5 44 -64.5 53 Z"></path></symbol><symbol id="V" viewBox="0 -250 1250 1250"><path d="M492 410 l-4 0 q0 -123 -4 -179 q1 -19 4 -66.5 q3 -47.5 7 -57.5 q3 -11 7 -15 q4 -4 7 -17 q-30 -7 -125 -60 q-96 -52 -115 -56 l-77 52 q-70 49 -81 51 l0 9 l39 7 q66 11 107 29 q49 21 68 46.5 q19 25.5 19 72.5 q0 20 -1 31 q-3 36 -3 57 q0 13 1 18 q2 28 2 78 q-20 -1 -50 -22 q-28 -19 -41 -19 q-9 0 -55 38 l-58 48 q-39 33 -70.5 56.5 q-31.5 23.5 -48.5 26.5 q0 14 4 29 q13 -3 20 -9 q10 -8 17 -12 q33 -15 64 -15 q41 0 77 26 q65 47 104 47 q9 0 19 -7 l18 -9 q0 124 4 249 q3 142 -39 241 q-9 22 -30 44 q-17 18 -34 41 q-16 17 -40 47 q-24 30 -27 40 q9 -2 28.5 -14.5 q19.5 -12.5 30.5 -21.5 q65 -59 129 -158 l50 -90 q11 -23 27.5 -50.5 q16.5 -27.5 29.5 -41.5 l6 -7 q24 -24 51 -27 q-3 -13 -7 -14 q-4 -1 -11 -13 q-18 -31 -22.5 -48.5 q-4.5 -17.5 -4.5 -50.5 l0 -116 l0 -97 q6 4 9 20 q6 43 17.5 91 q11.5 48 25.5 76 q18 40 37 60 l40 46 q39 50 108.5 94 q69.5 44 144.5 75 q63 27 88 27 q12 0 21.5 -6 q9.5 -6 20 -22 q10.5 -16 14.5 -22 q9 -15 44 -54 q35 -39 50 -51 q32 -24 36 -31 q3 -5 3 -12 q0 -6 -1 -10 q-34 18 -50 42 q-13 21 -43 21 l-10 -1 q-66 -6 -113 -21.5 q-47 -15.5 -97 -50.5 q-34 -22 -52.5 -39 q-18.5 -17 -45.5 -47 l-19 -21 q-39 -41 -68.5 -103.5 q-29.5 -62.5 -42.5 -123.5 q-12 -56 -12 -104 q0 -98 49 -171 q31 -50 46 -66 q48 -55 101.5 -103 q53.5 -48 87.5 -48 q12 0 40 17 q31 19 40 23 q89 50 100 37 q15 -15 105 -85 q9 -7 13 -16 q-63 0 -124 -44 q-61 -43 -79 -43 q-5 0 -72 50 l-79 60 q-10 6 -36 29 l-74 59 q-69 55 -114 118 q-45 63 -80 148 q-14 34 -17.5 51.5 q-3.5 17.5 -3.5 59.5 Z"></path></symbol><symbol id="R" viewBox="0 -250 1250 1250"><path d="M429 708 l0 -211 q0 -12 33 -12 q46 0 106 21.5 q60 21.5 108 49.5 l27 16 q20 12 24.5 17.5 q4.5 5.5 4.5 19.5 l-1 33 q0 57 -91 90 l-139 52 q-5 2 -16.5 7.5 q-11.5 5.5 -20.5 5.5 q-18 0 -28 -26 q-7 -15 -7 -63 ZM23 386 q1 9 26 31 l90 93 q-9 6 -30 24 l-15 12 l-14 12 l-55 45 q-5 3 -5 8 q0 12 31 32 q80 53 88 78 l-63 44 q-5 5 -5 14 q0 8 2 12 q13 0 53 -38 q55 -57 130 -106 q19 -13 24 -26 q-49 -25 -74 -53 q-26 -29 -59 -46 q8 -12 39.5 -37.5 q31.5 -25.5 57.5 -43.5 l16 -14 l3 -5 l2 -5 q1 -4 -2 -11 q-5 -11 -10 -11 q-1 0 -2 2 q-3 9 -36 -34 l-28 -32 q-15 -15 -15 -28 l58 -33 q-7 -13 -8 -25 l-22 19 l-45 38 q-10 9 -66.5 45 q-56.5 36 -65.5 39 ZM96 1202 q11 41 43 48 q-1 -4 -7 -27.5 q-6 -23.5 -6 -44.5 q0 -34 24 -90 q13 -32 54 -79 q22 -27 31 -35 l111 -88 q74 -47 178 -86 q31 -12 111 -35.5 q80 -23.5 96 -23.5 l0 361 q-1 7 -1 15 q-1 -1 -7 1 l0 21 l123 55 q6 3 14 3 q13 0 28 -9 q39 -20 77 -43 q60 -30 68 -52 q-16 2 -17 3 q-2 1 -28 1 q-16 0 -42.5 -10 q-26.5 -10 -46 -24.5 q-19.5 -14.5 -19.5 -27.5 l0 -393 q0 -61 16 -96 q15 -32 17 -45 q-42 0 -84 -19 l-76 -28 l-33 -11 q-44 -15 -60.5 -22 q-16.5 -7 -23.5 -16.5 q-7 -9.5 -7 -28.5 q0 -16 3 -44 l-93 73 q-90 54 -110 55 q0 -17 2 -33 q2 -16 2 -33 l4 -207 l0 -71 q-1 -33 17 -53 q17 -15 45 -25 l54 -21 q-13 0 -17 -2 q-1 0 -16 -2 q-61 -3 -92.5 -8 q-31.5 -5 -71.5 -26 q-27 -14 -30 -18 q-1 -2 -17 -14 q-17 9 -58 43 l-64 50 q-13 9 -15 18 q11 3 50 17 q38 13 58 13 l4 360 q0 20 2 42 q2 22 2 40 l0 46 l0 45 q0 40 3 111 q1 22 1 56 q0 35 -2 46 q-4 27 -11 27 q-7 2 -27 22 l-12 11 l-11 11 q-2 2 -3 2 l-18 19 q-46 49 -81.5 114.5 q-35.5 65.5 -35.5 123.5 q0 18 5 38 Z"></path></symbol><symbol id="N" viewBox="0 -250 1250 1250"><path d="M273 318 q0 22 53 66.5 q53 44.5 119.5 88.5 q66.5 44 101.5 64 q40 26 60 40 q45 32 67.5 52.5 q22.5 20.5 29.5 48.5 q-9 0 -14 1 q-5 1 -12 1 l-136 -1 q-17 0 -28 -3 q-14 -2 -30 -2 q-169 0 -214 -4 q-10 -1 -13 -3 q-3 -1 -17 -1 q-8 12 -35 51 q-20 29 -32 55 q-23 52 -64 110 q-11 15 -35 44 q-20 25 -27 37 q-7 12 -7 23 q0 16 17.5 34 q17.5 18 64.5 53 q69 53 105 74 l104 66 l19 13 q46 29 78.5 56 q32.5 27 39.5 54 q5 20 5 48 q0 20 -1 31 q18 -1 40 -31 l33 -45 q15 -19 31 -43 l32 -47 q17 -18 43 -18 q29 0 72 23 q80 45 109 45 q11 0 33.5 -14.5 q22.5 -14.5 45.5 -33.5 q23 -19 28 -23 l76 -57 q18 -12 24 -21 q-29 7 -50 13 q-3 1 -9 1 q-31 0 -98 -35 q-87 -42 -97 -48 q-7 -4 -49 31 l-132 104 l-134 -64 q-19 -11 -60 -39 q-71 -48 -111 -88 q-17 -18 -22 -19 q-4 0 -28 -30 l-27 -31 q-28 -32 -40.5 -52 q-12.5 -20 -12.5 -46 q0 -31 21 -70 q24 0 60 -2 q34 -2 61 -2 l301 5 q43 5 41 20 q-1 16 60 -48 l12 -15 l13 -14 q32 -33 71.5 -83.5 q39.5 -50.5 39.5 -70.5 q0 -10 -28 -22 l-33 -17 q-63 -26 -95.5 -46.5 q-32.5 -20.5 -98.5 -70.5 q-31 -23 -75.5 -64.5 q-44.5 -41.5 -78.5 -86 q-34 -44.5 -34 -74.5 q0 -26 12 -54 l66 -132 q-23 11 -34 32 l-22 43 l-24 44 q-16 28 -23 42 q-18 34 -63 93 q-45 58 -45 64 Z"></path></symbol></defs></svg>